<mxfile host="app.diagrams.net" agent="Mozilla/5.0 (Windows NT 10.0; Win64; x64) AppleWebKit/537.36 (KHTML, like Gecko) Chrome/128.0.0.0 Safari/537.36" version="24.7.13">
  <diagram name="Página-1" id="LimDTiDGToZlzmWnDv70">
    <mxGraphModel dx="4424" dy="3060" grid="1" gridSize="10" guides="1" tooltips="1" connect="1" arrows="1" fold="1" page="1" pageScale="1" pageWidth="827" pageHeight="1169" math="0" shadow="0">
      <root>
        <mxCell id="0" />
        <mxCell id="1" parent="0" />
        <mxCell id="GgL0T41yPBXKPabCRAPt-1" value="" style="rounded=0;whiteSpace=wrap;html=1;" vertex="1" parent="1">
          <mxGeometry x="-800" y="-530" width="2450" height="3070" as="geometry" />
        </mxCell>
        <mxCell id="2ubSMsJZ-q5m1QUkIUyU-142" value="" style="rounded=1;whiteSpace=wrap;html=1;fillStyle=dots;strokeWidth=2;strokeColor=#0d0d0d;" parent="1" vertex="1">
          <mxGeometry x="130.12" y="1870" width="567.04" height="390" as="geometry" />
        </mxCell>
        <mxCell id="2ubSMsJZ-q5m1QUkIUyU-148" style="edgeStyle=orthogonalEdgeStyle;rounded=0;orthogonalLoop=1;jettySize=auto;html=1;exitX=0.5;exitY=1;exitDx=0;exitDy=0;entryX=0.5;entryY=0;entryDx=0;entryDy=0;strokeWidth=6;" parent="1" source="2ubSMsJZ-q5m1QUkIUyU-95" target="2ubSMsJZ-q5m1QUkIUyU-142" edge="1">
          <mxGeometry relative="1" as="geometry" />
        </mxCell>
        <mxCell id="2ubSMsJZ-q5m1QUkIUyU-95" value="" style="rounded=0;whiteSpace=wrap;html=1;strokeColor=#000000;" parent="1" vertex="1">
          <mxGeometry x="-498.4" y="510" width="1824.07" height="980" as="geometry" />
        </mxCell>
        <mxCell id="2ubSMsJZ-q5m1QUkIUyU-19" style="edgeStyle=orthogonalEdgeStyle;rounded=0;orthogonalLoop=1;jettySize=auto;html=1;exitX=1;exitY=0.5;exitDx=0;exitDy=0;strokeWidth=4;" parent="1" source="2ubSMsJZ-q5m1QUkIUyU-17" target="2ubSMsJZ-q5m1QUkIUyU-16" edge="1">
          <mxGeometry relative="1" as="geometry" />
        </mxCell>
        <mxCell id="2ubSMsJZ-q5m1QUkIUyU-17" value="" style="rounded=1;whiteSpace=wrap;html=1;" parent="1" vertex="1">
          <mxGeometry x="-306.59" y="-41" width="363.19" height="268.5" as="geometry" />
        </mxCell>
        <mxCell id="2ubSMsJZ-q5m1QUkIUyU-96" style="edgeStyle=orthogonalEdgeStyle;rounded=0;orthogonalLoop=1;jettySize=auto;html=1;exitX=0.5;exitY=1;exitDx=0;exitDy=0;entryX=0.5;entryY=0;entryDx=0;entryDy=0;strokeWidth=5;" parent="1" source="2ubSMsJZ-q5m1QUkIUyU-16" target="2ubSMsJZ-q5m1QUkIUyU-95" edge="1">
          <mxGeometry relative="1" as="geometry" />
        </mxCell>
        <mxCell id="2ubSMsJZ-q5m1QUkIUyU-16" value="" style="rounded=1;whiteSpace=wrap;html=1;" parent="1" vertex="1">
          <mxGeometry x="217.94" y="-30" width="391.38" height="246.5" as="geometry" />
        </mxCell>
        <mxCell id="2ubSMsJZ-q5m1QUkIUyU-20" style="edgeStyle=orthogonalEdgeStyle;rounded=0;orthogonalLoop=1;jettySize=auto;html=1;exitX=0;exitY=0.5;exitDx=0;exitDy=0;strokeWidth=4;" parent="1" source="2ubSMsJZ-q5m1QUkIUyU-13" edge="1">
          <mxGeometry relative="1" as="geometry">
            <mxPoint x="610" y="99.66666666666697" as="targetPoint" />
          </mxGeometry>
        </mxCell>
        <mxCell id="2ubSMsJZ-q5m1QUkIUyU-13" value="" style="rounded=0;whiteSpace=wrap;html=1;strokeColor=default;dashed=1;gradientColor=none;fillStyle=auto;" parent="1" vertex="1">
          <mxGeometry x="760" y="-240" width="360" height="680" as="geometry" />
        </mxCell>
        <mxCell id="2ubSMsJZ-q5m1QUkIUyU-1" value="&lt;font style=&quot;&quot;&gt;&lt;font color=&quot;#000000&quot; style=&quot;font-size: 24px;&quot;&gt;API Gateway&lt;br&gt;&lt;/font&gt;&lt;br&gt;&lt;/font&gt;" style="html=1;whiteSpace=wrap;strokeWidth=4;rounded=1;sketch=0;verticalAlign=top;labelPosition=center;verticalLabelPosition=bottom;spacingTop=-6;fontSize=11;fontStyle=1;fontColor=#999999;shape=image;aspect=fixed;imageAspect=0;image=data:image/svg+xml,PHN2ZyB4bWxucz0iaHR0cDovL3d3dy53My5vcmcvMjAwMC9zdmciIGhlaWdodD0iMzY3LjgxODMyODg1NzQyMTkiIHZpZXdCb3g9IjcuMTA1NDI3MzU3NjAxMDAyZS0xNSAwIDM2Ni40MTAxODY3Njc1NzgxIDM2Ny44MTgzMjg4NTc0MjE5IiBwcmVzZXJ2ZUFzcGVjdFJhdGlvPSJ4TWlkWU1pZCBtZWV0IiB3aWR0aD0iMzY2LjQxMDE5Njc2NzU3OTEiIHZlcnNpb249IjEuMSIgaWQ9InN2Zzk4NyIgem9vbUFuZFBhbj0ibWFnbmlmeSI+JiN4YTsgIDxwYXRoIGQ9Im0gNDguMjUxOTYsMTExLjUzOTA2IGMgLTcuNjE4NjQsMmUtNCAtMTMuNzk0NzIsNi4xNzYyOCAtMTMuNzk0OTMsMTMuNzk0OTIgMi4xZS00LDcuNjE4NjQgNi4xNzYyOSwxMy43OTQ3MiAxMy43OTQ5MywxMy43OTQ5MiBoIDE0NS4xNDY5MiB2IC0yNy41ODk4NCB6IG0gMjM4LjYwODU5LDU3LjQ1MTE3IGggNjUuNzU0NjkgYyA3LjYxODY0LC0yLjFlLTQgMTMuNzk0NzEsLTYuMTc2MjggMTMuNzk0OTIsLTEzLjc5NDkyIC0yLjFlLTQsLTcuNjE4NjQgLTYuMTc2MjgsLTEzLjc5NDcxIC0xMy43OTQ5MiwtMTMuNzk0OTIgSCAyODQuODUwNiBaIE0gMTMuNzk0OTIsMTcwLjk3NDYxIEMgNi4xNzYyODAxLDE3MC45NzQ4MiAyLjEwMDkxOWUtNCwxNzcuMTUwODkgOS4xODk5MjFlLTgsMTg0Ljc2OTUzIC04LjY5OTA4MWUtNCwxOTIuMzg4OTMgNi4xNzU1MjAxLDE5OC41NjYxOSAxMy43OTQ5MiwxOTguNTY2NCBIIDE5My4zOTg4OCBWIDE3MC45NzQ2MSBaIE0gMjg0LjMwNzgsMjI3LjU2NjQgaCA2OC4zMDc0NCBjIDcuNjE4NjQsLTIuMWUtNCAxMy43OTQ3MSwtNi4xNzYyOCAxMy43OTQ5MiwtMTMuNzk0OTIgLTIuMWUtNCwtNy42MTg2NCAtNi4xNzYyOCwtMTMuNzk0NzEgLTEzLjc5NDkyLC0xMy43OTQ5MiBoIC02NS45MjE3OCB6IG0gLTIzNi4wNTU4NCwxLjY5NzI3IGMgLTcuNjE4NjQsMmUtNCAtMTMuNzk0NzIsNi4xNzYyOCAtMTMuNzk0OTMsMTMuNzk0OTIgMi4xZS00LDcuNjE4NjQgNi4xNzYyOSwxMy43OTQ3MiAxMy43OTQ5MywxMy43OTQ5MiBIIDE5My4zOTg4OCBWIDIyOS4yNjM2NyBaIE0gMTg5LjUyMTQ5LDAgYyAtMjQuNTc0MTEsMCAtNDkuMTY3MzcsMjAuMDU1MDcgLTU5LjQzNzUsNzUuMzczMDQgaCAzMC41ODAwNyBjIDQuNjE2MzMsLTI0LjE2MjA2IDE1LjM0ODk2LC00Ny41MjE0OCAyNy44NTM1MiwtNDcuNTIxNDggMTIuMTU4OCwwIDM5LjQ1ODk4LDU3LjQ1MDQ0IDM5LjQ1ODk4LDE2MC40MTQwNiAwLDY5LjkxNTEzIC0xOS41NzgwOSwxNTIuMTE1MjQgLTQxLjE3MTg3LDE1Mi4xMTUyMyAtMTUuMjY4ODEsMmUtNSAtMjEuMjE2NjgsLTI4LjMzMzU2IC0yNS40NDMzNiwtNDYuNzE4NzQgbCAtMzAuNDE0MDYsLTAuMDY4NCBjIDQuMjIwNzQsMjAuNTQwODcgMTYuOTA3NjgsNzQuMjI0NiA1Ny43MTI4OSw3NC4yMjQ2IDUzLjQzNjcyLDAgNjguOTEyMTEsLTExMS45OTMwNSA2OC45MTIxMSwtMTgwLjQ2Mjg5IEMgMjU3LjU3MjI3LDkzLjgwMDc2IDIzNi41ODM0LDAgMTg5LjUyMTQ5LDAgWiIgc3R5bGU9ImNvbG9yOiMwMDAwMDA7b3BhY2l0eToxO2ZpbGw6IzQyODVmNDtmaWxsLW9wYWNpdHk6MTtzdHJva2UtbGluZWNhcDpyb3VuZDstaW5rc2NhcGUtc3Ryb2tlOm5vbmUiLz4mI3hhOzwvc3ZnPg==;" parent="1" vertex="1">
          <mxGeometry x="271.01" y="20" width="285.25" height="140" as="geometry" />
        </mxCell>
        <mxCell id="2ubSMsJZ-q5m1QUkIUyU-8" value="&lt;font style=&quot;font-size: 24px;&quot;&gt;&lt;b style=&quot;&quot;&gt;Security&lt;/b&gt;&lt;/font&gt;" style="html=1;whiteSpace=wrap;strokeColor=none;fillColor=#0079D6;labelPosition=center;verticalLabelPosition=middle;verticalAlign=top;align=center;fontSize=12;outlineConnect=0;spacingTop=-6;fontColor=#FFFFFF;sketch=0;shape=mxgraph.sitemap.security;" parent="1" vertex="1">
          <mxGeometry x="-250" y="25" width="250" height="150" as="geometry" />
        </mxCell>
        <mxCell id="2ubSMsJZ-q5m1QUkIUyU-9" value="&lt;font style=&quot;font-size: 24px;&quot;&gt;&lt;b&gt;Discovery Server&lt;/b&gt;&lt;/font&gt;" style="outlineConnect=0;dashed=0;verticalLabelPosition=bottom;verticalAlign=top;align=center;html=1;shape=mxgraph.aws3.application_discovery_service;fillColor=#5294CF;gradientColor=none;" parent="1" vertex="1">
          <mxGeometry x="840" y="-160" width="200" height="201.5" as="geometry" />
        </mxCell>
        <mxCell id="2ubSMsJZ-q5m1QUkIUyU-12" value="&lt;font style=&quot;font-size: 24px;&quot;&gt;&lt;b&gt;Config Server&lt;/b&gt;&lt;/font&gt;" style="outlineConnect=0;dashed=0;verticalLabelPosition=bottom;verticalAlign=top;align=center;html=1;shape=mxgraph.aws3.server_migration_service;fillColor=#5294CF;gradientColor=none;" parent="1" vertex="1">
          <mxGeometry x="840" y="160" width="233" height="220" as="geometry" />
        </mxCell>
        <mxCell id="2ubSMsJZ-q5m1QUkIUyU-14" value="&lt;pre style=&quot;line-height: 36px; background-color: rgb(248, 249, 250); border: none; padding: 2px 0.14em 2px 0px; position: relative; margin-top: -2px; margin-bottom: -2px; resize: none; font-family: inherit; overflow: hidden; width: 270px; text-wrap: wrap; overflow-wrap: break-word; color: rgb(31, 31, 31);&quot; data-ved=&quot;2ahUKEwin8f283buIAxXVrZUCHShIBwwQ3ewLegQIDBAU&quot; aria-label=&quot;Texto traduzido&quot; id=&quot;tw-target-text&quot; data-placeholder=&quot;Tradução&quot; class=&quot;tw-data-text tw-text-large tw-ta&quot;&gt;&lt;span style=&quot;&quot; lang=&quot;en&quot; class=&quot;Y2IQFc&quot;&gt;&lt;b style=&quot;&quot;&gt;&lt;font style=&quot;font-size: 36px;&quot;&gt;Infrastructure&lt;/font&gt;&lt;/b&gt;&lt;/span&gt;&lt;/pre&gt;" style="text;html=1;align=center;verticalAlign=middle;whiteSpace=wrap;rounded=0;" parent="1" vertex="1">
          <mxGeometry x="896.5" y="-220" width="120" height="30" as="geometry" />
        </mxCell>
        <mxCell id="2ubSMsJZ-q5m1QUkIUyU-18" value="&lt;pre style=&quot;font-size: 28px; line-height: 36px; background-color: rgb(248, 249, 250); border: none; padding: 2px 0.14em 2px 0px; position: relative; margin-top: -2px; margin-bottom: -2px; resize: none; font-family: inherit; overflow: hidden; width: 270px; text-wrap: wrap; overflow-wrap: break-word; color: rgb(31, 31, 31);&quot; dir=&quot;ltr&quot; data-ved=&quot;2ahUKEwin8f283buIAxXVrZUCHShIBwwQ3ewLegQIDBAU&quot; aria-label=&quot;Texto traduzido&quot; id=&quot;tw-target-text&quot; data-placeholder=&quot;Tradução&quot; class=&quot;tw-data-text tw-text-large tw-ta&quot;&gt;&lt;span lang=&quot;en&quot; class=&quot;Y2IQFc&quot;&gt;&lt;b&gt;ERP Security&lt;/b&gt;&lt;/span&gt;&lt;/pre&gt;" style="text;html=1;align=center;verticalAlign=middle;whiteSpace=wrap;rounded=0;" parent="1" vertex="1">
          <mxGeometry x="-180" y="-10" width="110" height="30" as="geometry" />
        </mxCell>
        <mxCell id="2ubSMsJZ-q5m1QUkIUyU-21" value="" style="rounded=1;whiteSpace=wrap;html=1;rotation=-90;glass=0;" parent="1" vertex="1">
          <mxGeometry x="-463.59000000000003" y="620.32" width="419.38" height="288.75" as="geometry" />
        </mxCell>
        <mxCell id="2ubSMsJZ-q5m1QUkIUyU-30" value="" style="edgeStyle=orthogonalEdgeStyle;rounded=0;orthogonalLoop=1;jettySize=auto;html=1;" parent="1" source="2ubSMsJZ-q5m1QUkIUyU-22" target="2ubSMsJZ-q5m1QUkIUyU-26" edge="1">
          <mxGeometry relative="1" as="geometry" />
        </mxCell>
        <mxCell id="2ubSMsJZ-q5m1QUkIUyU-22" value="&lt;font style=&quot;font-size: 24px;&quot;&gt;&lt;strong style=&quot;&quot;&gt;Customer Service&lt;/strong&gt;: Gerencia informações do Cliente.&lt;/font&gt;" style="text;html=1;align=center;verticalAlign=middle;whiteSpace=wrap;rounded=0;" parent="1" vertex="1">
          <mxGeometry x="-383.9" y="570" width="260" height="85" as="geometry" />
        </mxCell>
        <mxCell id="2ubSMsJZ-q5m1QUkIUyU-23" value="" style="image;aspect=fixed;html=1;points=[];align=center;fontSize=12;image=img/lib/azure2/databases/Azure_Database_PostgreSQL_Server.svg;" parent="1" vertex="1">
          <mxGeometry x="-288.09000000000003" y="870" width="68.38" height="91.17" as="geometry" />
        </mxCell>
        <mxCell id="2ubSMsJZ-q5m1QUkIUyU-29" value="" style="edgeStyle=orthogonalEdgeStyle;rounded=0;orthogonalLoop=1;jettySize=auto;html=1;" parent="1" source="2ubSMsJZ-q5m1QUkIUyU-26" target="2ubSMsJZ-q5m1QUkIUyU-23" edge="1">
          <mxGeometry relative="1" as="geometry" />
        </mxCell>
        <mxCell id="2ubSMsJZ-q5m1QUkIUyU-26" value="" style="dashed=0;outlineConnect=0;html=1;align=center;labelPosition=center;verticalLabelPosition=bottom;verticalAlign=top;shape=mxgraph.webicons.java;gradientColor=#DFDEDE" parent="1" vertex="1">
          <mxGeometry x="-305.1" y="700" width="102.4" height="102.4" as="geometry" />
        </mxCell>
        <mxCell id="2ubSMsJZ-q5m1QUkIUyU-32" value="" style="rounded=1;whiteSpace=wrap;html=1;rotation=-90;" parent="1" vertex="1">
          <mxGeometry x="-138.28" y="619.4300000000001" width="419.38" height="288.75" as="geometry" />
        </mxCell>
        <mxCell id="2ubSMsJZ-q5m1QUkIUyU-33" value="" style="edgeStyle=orthogonalEdgeStyle;rounded=0;orthogonalLoop=1;jettySize=auto;html=1;" parent="1" source="2ubSMsJZ-q5m1QUkIUyU-34" target="2ubSMsJZ-q5m1QUkIUyU-37" edge="1">
          <mxGeometry relative="1" as="geometry" />
        </mxCell>
        <mxCell id="2ubSMsJZ-q5m1QUkIUyU-34" value="&lt;font style=&quot;font-size: 24px;&quot;&gt;&lt;strong style=&quot;&quot;&gt;Order Service&lt;/strong&gt;: Gerencia o fluxo de criação de pedidos.&lt;/font&gt;" style="text;html=1;align=center;verticalAlign=middle;whiteSpace=wrap;rounded=0;" parent="1" vertex="1">
          <mxGeometry x="-58.59" y="569.11" width="260" height="85" as="geometry" />
        </mxCell>
        <mxCell id="2ubSMsJZ-q5m1QUkIUyU-35" value="" style="image;aspect=fixed;html=1;points=[];align=center;fontSize=12;image=img/lib/azure2/databases/Azure_Database_PostgreSQL_Server.svg;" parent="1" vertex="1">
          <mxGeometry x="37.22" y="869.11" width="68.38" height="91.17" as="geometry" />
        </mxCell>
        <mxCell id="2ubSMsJZ-q5m1QUkIUyU-36" value="" style="edgeStyle=orthogonalEdgeStyle;rounded=0;orthogonalLoop=1;jettySize=auto;html=1;" parent="1" source="2ubSMsJZ-q5m1QUkIUyU-37" target="2ubSMsJZ-q5m1QUkIUyU-35" edge="1">
          <mxGeometry relative="1" as="geometry" />
        </mxCell>
        <mxCell id="2ubSMsJZ-q5m1QUkIUyU-37" value="" style="dashed=0;outlineConnect=0;html=1;align=center;labelPosition=center;verticalLabelPosition=bottom;verticalAlign=top;shape=mxgraph.webicons.java;gradientColor=#DFDEDE" parent="1" vertex="1">
          <mxGeometry x="20.210000000000008" y="699.11" width="102.4" height="102.4" as="geometry" />
        </mxCell>
        <mxCell id="2ubSMsJZ-q5m1QUkIUyU-51" value="" style="rounded=1;whiteSpace=wrap;html=1;rotation=-90;" parent="1" vertex="1">
          <mxGeometry x="201.41" y="620.32" width="419.38" height="288.75" as="geometry" />
        </mxCell>
        <mxCell id="2ubSMsJZ-q5m1QUkIUyU-52" value="" style="edgeStyle=orthogonalEdgeStyle;rounded=0;orthogonalLoop=1;jettySize=auto;html=1;" parent="1" source="2ubSMsJZ-q5m1QUkIUyU-53" target="2ubSMsJZ-q5m1QUkIUyU-56" edge="1">
          <mxGeometry relative="1" as="geometry" />
        </mxCell>
        <mxCell id="2ubSMsJZ-q5m1QUkIUyU-53" value="&lt;font style=&quot;font-size: 24px;&quot;&gt;&lt;strong style=&quot;&quot;&gt;Product Service&lt;/strong&gt;: Gerencia informações do produto.&lt;/font&gt;" style="text;html=1;align=center;verticalAlign=middle;whiteSpace=wrap;rounded=0;" parent="1" vertex="1">
          <mxGeometry x="281.1" y="570" width="260" height="85" as="geometry" />
        </mxCell>
        <mxCell id="2ubSMsJZ-q5m1QUkIUyU-54" value="" style="image;aspect=fixed;html=1;points=[];align=center;fontSize=12;image=img/lib/azure2/databases/Azure_Database_PostgreSQL_Server.svg;" parent="1" vertex="1">
          <mxGeometry x="376.90999999999997" y="870" width="68.38" height="91.17" as="geometry" />
        </mxCell>
        <mxCell id="2ubSMsJZ-q5m1QUkIUyU-55" value="" style="edgeStyle=orthogonalEdgeStyle;rounded=0;orthogonalLoop=1;jettySize=auto;html=1;" parent="1" source="2ubSMsJZ-q5m1QUkIUyU-56" target="2ubSMsJZ-q5m1QUkIUyU-54" edge="1">
          <mxGeometry relative="1" as="geometry" />
        </mxCell>
        <mxCell id="2ubSMsJZ-q5m1QUkIUyU-56" value="" style="dashed=0;outlineConnect=0;html=1;align=center;labelPosition=center;verticalLabelPosition=bottom;verticalAlign=top;shape=mxgraph.webicons.java;gradientColor=#DFDEDE" parent="1" vertex="1">
          <mxGeometry x="359.9" y="700" width="102.4" height="102.4" as="geometry" />
        </mxCell>
        <mxCell id="2ubSMsJZ-q5m1QUkIUyU-57" value="" style="rounded=1;whiteSpace=wrap;html=1;rotation=-90;" parent="1" vertex="1">
          <mxGeometry x="551.0399999999998" y="618.5400000000001" width="419.38" height="288.75" as="geometry" />
        </mxCell>
        <mxCell id="2ubSMsJZ-q5m1QUkIUyU-58" value="" style="edgeStyle=orthogonalEdgeStyle;rounded=0;orthogonalLoop=1;jettySize=auto;html=1;" parent="1" target="2ubSMsJZ-q5m1QUkIUyU-62" edge="1">
          <mxGeometry relative="1" as="geometry">
            <mxPoint x="761" y="670" as="sourcePoint" />
          </mxGeometry>
        </mxCell>
        <mxCell id="2ubSMsJZ-q5m1QUkIUyU-59" value="&lt;font style=&quot;font-size: 24px;&quot;&gt;&lt;strong style=&quot;&quot;&gt;DistanceCalculator Service&lt;/strong&gt;: Calcula as distâncias com base nos CEPs.&lt;/font&gt;" style="text;html=1;align=center;verticalAlign=middle;whiteSpace=wrap;rounded=0;" parent="1" vertex="1">
          <mxGeometry x="630.7299999999999" y="568.22" width="260" height="85" as="geometry" />
        </mxCell>
        <mxCell id="2ubSMsJZ-q5m1QUkIUyU-60" value="" style="image;aspect=fixed;html=1;points=[];align=center;fontSize=12;image=img/lib/azure2/databases/Azure_Database_PostgreSQL_Server.svg;" parent="1" vertex="1">
          <mxGeometry x="726.5399999999998" y="868.22" width="68.38" height="91.17" as="geometry" />
        </mxCell>
        <mxCell id="2ubSMsJZ-q5m1QUkIUyU-61" value="" style="edgeStyle=orthogonalEdgeStyle;rounded=0;orthogonalLoop=1;jettySize=auto;html=1;" parent="1" source="2ubSMsJZ-q5m1QUkIUyU-62" target="2ubSMsJZ-q5m1QUkIUyU-60" edge="1">
          <mxGeometry relative="1" as="geometry" />
        </mxCell>
        <mxCell id="2ubSMsJZ-q5m1QUkIUyU-62" value="" style="dashed=0;outlineConnect=0;html=1;align=center;labelPosition=center;verticalLabelPosition=bottom;verticalAlign=top;shape=mxgraph.webicons.java;gradientColor=#DFDEDE" parent="1" vertex="1">
          <mxGeometry x="709.5299999999999" y="710.82" width="102.4" height="102.4" as="geometry" />
        </mxCell>
        <mxCell id="2ubSMsJZ-q5m1QUkIUyU-64" value="" style="rounded=1;whiteSpace=wrap;html=1;rotation=-90;" parent="1" vertex="1">
          <mxGeometry x="890.7299999999999" y="617.6500000000001" width="419.38" height="288.75" as="geometry" />
        </mxCell>
        <mxCell id="2ubSMsJZ-q5m1QUkIUyU-65" value="" style="edgeStyle=orthogonalEdgeStyle;rounded=0;orthogonalLoop=1;jettySize=auto;html=1;" parent="1" source="2ubSMsJZ-q5m1QUkIUyU-66" target="2ubSMsJZ-q5m1QUkIUyU-69" edge="1">
          <mxGeometry relative="1" as="geometry" />
        </mxCell>
        <mxCell id="2ubSMsJZ-q5m1QUkIUyU-66" value="&lt;font style=&quot;font-size: 24px;&quot;&gt;&lt;strong style=&quot;&quot;&gt;Freight Service&lt;/strong&gt;: Calcula o frete.&lt;/font&gt;" style="text;html=1;align=center;verticalAlign=middle;whiteSpace=wrap;rounded=0;" parent="1" vertex="1">
          <mxGeometry x="970.42" y="567.33" width="260" height="85" as="geometry" />
        </mxCell>
        <mxCell id="2ubSMsJZ-q5m1QUkIUyU-67" value="" style="image;aspect=fixed;html=1;points=[];align=center;fontSize=12;image=img/lib/azure2/databases/Azure_Database_PostgreSQL_Server.svg;" parent="1" vertex="1">
          <mxGeometry x="1066.23" y="867.33" width="68.38" height="91.17" as="geometry" />
        </mxCell>
        <mxCell id="2ubSMsJZ-q5m1QUkIUyU-68" value="" style="edgeStyle=orthogonalEdgeStyle;rounded=0;orthogonalLoop=1;jettySize=auto;html=1;" parent="1" source="2ubSMsJZ-q5m1QUkIUyU-69" target="2ubSMsJZ-q5m1QUkIUyU-67" edge="1">
          <mxGeometry relative="1" as="geometry" />
        </mxCell>
        <mxCell id="2ubSMsJZ-q5m1QUkIUyU-69" value="" style="dashed=0;outlineConnect=0;html=1;align=center;labelPosition=center;verticalLabelPosition=bottom;verticalAlign=top;shape=mxgraph.webicons.java;gradientColor=#DFDEDE" parent="1" vertex="1">
          <mxGeometry x="1049.22" y="697.33" width="102.4" height="102.4" as="geometry" />
        </mxCell>
        <mxCell id="2ubSMsJZ-q5m1QUkIUyU-70" value="" style="rounded=1;whiteSpace=wrap;html=1;rotation=-90;" parent="1" vertex="1">
          <mxGeometry x="-138.28" y="1100.3200000000002" width="419.38" height="288.75" as="geometry" />
        </mxCell>
        <mxCell id="2ubSMsJZ-q5m1QUkIUyU-151" value="" style="edgeStyle=orthogonalEdgeStyle;rounded=0;orthogonalLoop=1;jettySize=auto;html=1;" parent="1" source="2ubSMsJZ-q5m1QUkIUyU-72" target="2ubSMsJZ-q5m1QUkIUyU-75" edge="1">
          <mxGeometry relative="1" as="geometry" />
        </mxCell>
        <mxCell id="2ubSMsJZ-q5m1QUkIUyU-72" value="&lt;font style=&quot;font-size: 24px;&quot;&gt;&lt;strong style=&quot;&quot;&gt;TotalValueCalculation Service&lt;/strong&gt;: Calcula o valor total (produto + frete + impostos).&lt;/font&gt;" style="text;html=1;align=center;verticalAlign=middle;whiteSpace=wrap;rounded=0;" parent="1" vertex="1">
          <mxGeometry x="-58.59" y="1049.11" width="260" height="110" as="geometry" />
        </mxCell>
        <mxCell id="2ubSMsJZ-q5m1QUkIUyU-73" value="" style="image;aspect=fixed;html=1;points=[];align=center;fontSize=12;image=img/lib/azure2/databases/Azure_Database_PostgreSQL_Server.svg;" parent="1" vertex="1">
          <mxGeometry x="37.22" y="1350" width="68.38" height="91.17" as="geometry" />
        </mxCell>
        <mxCell id="2ubSMsJZ-q5m1QUkIUyU-74" value="" style="edgeStyle=orthogonalEdgeStyle;rounded=0;orthogonalLoop=1;jettySize=auto;html=1;" parent="1" source="2ubSMsJZ-q5m1QUkIUyU-75" target="2ubSMsJZ-q5m1QUkIUyU-73" edge="1">
          <mxGeometry relative="1" as="geometry" />
        </mxCell>
        <mxCell id="2ubSMsJZ-q5m1QUkIUyU-75" value="" style="dashed=0;outlineConnect=0;html=1;align=center;labelPosition=center;verticalLabelPosition=bottom;verticalAlign=top;shape=mxgraph.webicons.java;gradientColor=#DFDEDE" parent="1" vertex="1">
          <mxGeometry x="20.210000000000008" y="1200" width="102.4" height="102.4" as="geometry" />
        </mxCell>
        <mxCell id="2ubSMsJZ-q5m1QUkIUyU-76" value="" style="rounded=1;whiteSpace=wrap;html=1;rotation=-90;" parent="1" vertex="1">
          <mxGeometry x="200" y="1099.43" width="419.38" height="288.75" as="geometry" />
        </mxCell>
        <mxCell id="2ubSMsJZ-q5m1QUkIUyU-77" value="" style="edgeStyle=orthogonalEdgeStyle;rounded=0;orthogonalLoop=1;jettySize=auto;html=1;" parent="1" source="2ubSMsJZ-q5m1QUkIUyU-78" target="2ubSMsJZ-q5m1QUkIUyU-81" edge="1">
          <mxGeometry relative="1" as="geometry" />
        </mxCell>
        <mxCell id="2ubSMsJZ-q5m1QUkIUyU-78" value="&lt;font style=&quot;font-size: 24px;&quot;&gt;&lt;strong style=&quot;&quot;&gt;Notification Service&lt;/strong&gt;: Gerencia notificações enviadas.&lt;/font&gt;" style="text;html=1;align=center;verticalAlign=middle;whiteSpace=wrap;rounded=0;" parent="1" vertex="1">
          <mxGeometry x="281.1" y="1049.1100000000001" width="260" height="85" as="geometry" />
        </mxCell>
        <mxCell id="2ubSMsJZ-q5m1QUkIUyU-79" value="" style="image;aspect=fixed;html=1;points=[];align=center;fontSize=12;image=img/lib/azure2/databases/Azure_Database_PostgreSQL_Server.svg;" parent="1" vertex="1">
          <mxGeometry x="376.90999999999997" y="1349.1100000000001" width="68.38" height="91.17" as="geometry" />
        </mxCell>
        <mxCell id="2ubSMsJZ-q5m1QUkIUyU-80" value="" style="edgeStyle=orthogonalEdgeStyle;rounded=0;orthogonalLoop=1;jettySize=auto;html=1;" parent="1" source="2ubSMsJZ-q5m1QUkIUyU-81" target="2ubSMsJZ-q5m1QUkIUyU-79" edge="1">
          <mxGeometry relative="1" as="geometry" />
        </mxCell>
        <mxCell id="2ubSMsJZ-q5m1QUkIUyU-81" value="" style="dashed=0;outlineConnect=0;html=1;align=center;labelPosition=center;verticalLabelPosition=bottom;verticalAlign=top;shape=mxgraph.webicons.java;gradientColor=#DFDEDE" parent="1" vertex="1">
          <mxGeometry x="359.9" y="1179.1100000000001" width="102.4" height="102.4" as="geometry" />
        </mxCell>
        <mxCell id="2ubSMsJZ-q5m1QUkIUyU-87" value="" style="rounded=1;whiteSpace=wrap;html=1;rotation=-90;" parent="1" vertex="1">
          <mxGeometry x="556.26" y="1099.43" width="419.38" height="288.75" as="geometry" />
        </mxCell>
        <mxCell id="2ubSMsJZ-q5m1QUkIUyU-88" value="" style="edgeStyle=orthogonalEdgeStyle;rounded=0;orthogonalLoop=1;jettySize=auto;html=1;" parent="1" source="2ubSMsJZ-q5m1QUkIUyU-89" target="2ubSMsJZ-q5m1QUkIUyU-92" edge="1">
          <mxGeometry relative="1" as="geometry" />
        </mxCell>
        <mxCell id="2ubSMsJZ-q5m1QUkIUyU-89" value="&lt;font style=&quot;font-size: 24px;&quot;&gt;&lt;strong style=&quot;&quot;&gt;Payment Service&lt;/strong&gt;: Gerencia pagamentos do sistema ERP.&lt;/font&gt;" style="text;html=1;align=center;verticalAlign=middle;whiteSpace=wrap;rounded=0;" parent="1" vertex="1">
          <mxGeometry x="633.2199999999999" y="1049.1100000000001" width="260" height="85" as="geometry" />
        </mxCell>
        <mxCell id="2ubSMsJZ-q5m1QUkIUyU-90" value="" style="image;aspect=fixed;html=1;points=[];align=center;fontSize=12;image=img/lib/azure2/databases/Azure_Database_PostgreSQL_Server.svg;" parent="1" vertex="1">
          <mxGeometry x="729.03" y="1349.1100000000001" width="68.38" height="91.17" as="geometry" />
        </mxCell>
        <mxCell id="2ubSMsJZ-q5m1QUkIUyU-91" value="" style="edgeStyle=orthogonalEdgeStyle;rounded=0;orthogonalLoop=1;jettySize=auto;html=1;" parent="1" source="2ubSMsJZ-q5m1QUkIUyU-92" target="2ubSMsJZ-q5m1QUkIUyU-90" edge="1">
          <mxGeometry relative="1" as="geometry" />
        </mxCell>
        <mxCell id="2ubSMsJZ-q5m1QUkIUyU-92" value="" style="dashed=0;outlineConnect=0;html=1;align=center;labelPosition=center;verticalLabelPosition=bottom;verticalAlign=top;shape=mxgraph.webicons.java;gradientColor=#DFDEDE" parent="1" vertex="1">
          <mxGeometry x="712.02" y="1179.1100000000001" width="102.4" height="102.4" as="geometry" />
        </mxCell>
        <mxCell id="2ubSMsJZ-q5m1QUkIUyU-141" value="" style="shape=image;verticalLabelPosition=bottom;labelBackgroundColor=default;verticalAlign=top;aspect=fixed;imageAspect=0;image=data:image/png,iVBORw0KGgoAAAANSUhEUgAAA+gAAAIzCAIAAAAcT6TrAAAgAElEQVR42uzdB3ycxZ038GfmKbur7iLLXbZxw7hiem8B4tATCCWQhISEdgRCclzucoEj8KaHQAg49JbgYHo1YIzBNhj3gnu3ZcnqfXefMjPvzMrUAH4eabX7rPz7nj4+Agit5mm/mWfmP0QIoQEAAAAAQLhRNAEAAAAAAII7AAAAAAAguAMAAAAAILgDAAAAAACCOwAAAAAAILgDAAAAACC4AwAAAAAAgjsAAAAAACC4AwAAAAAguAMAAAAAAII7AAAAAACCOwAAAAAAILgDAAAAAACCOwAAAAAAgjsAAAAAACC4AwAAAAAAgjsAAAAAAII7AAAAAAAguAMAAAAAAII7AAAAAACCOwAAAAAAILgDAAAAACC4AwAAAAAAgjsAAAAAACC4AwAAAAAguAMAAAAAAII7AAAAAAAguAMAAAAAILgDAAAAAACCOwAAAAAAgjsAAAAAACC4AwAAAAAAgjsAAAAAAII7AAAAAAAguAMAAAAAAII7AAAAAACCOwAAAAAAILgDAAAAAACCOwAAAAAAgjsAAAAAACC4AwAAAAAguAMAAAAAAII7AAAAAAAguAMAAAAAILgDAAAAAACCOwAAAAAAILgDAAAAACC4AwAAAAAAgjsAAAAAAII7AAAAAAAguAMAAAAAAII7AAAAAACCOwAAAAAAILgDAAAAAACCOwAAAAAAgjsAAAAAACC4AwAAAAAAgjsAAAAAAII7AAAAAAAguAMAAAAAILgDAAAAAACCOwAAAAAAILgDAAAAACC4AwAAAAAAgjsAAAAAACC4AwAAAAAguAMAAAAAAII7AAAAAACCOwAAAAAAILgDAAAAAACCOwAAAAAAgjsAAAAAACC4AwAAAAAAgjsAAAAAAII7AAAAAAAguAMAAAAAAII7AAAAAACCOwAAAAAAILgDAAAAACC4AwAAAAAAgjsAAAAAACC4AwAAAAAguAMAAAAAAII7AAAAAAAguAMAAAAAILgDAAAAAACCOwAAAAAAgjsAAAAAACC4AwAAAAAAgjsAAAAAAII7AAAAAAAguAMAAAAAAII7AAAAAACCOwAAAAAAILgDAAAAAACCOwAAAAAAgjsAAAAAACC4AwAAAAAguAMAAAAAAII7AAAAAAAguAMAAAAAILgDAAAAAACCOwAAAAAAILgDAAAAACC4AwAAAAAAgjsAAAAAAII7AAAAAAAguAMAAAAAAII7AAAAAACCOwAAAAAAILgDAAAAAACCOwAAAABAD2D0yN+K1+4Q9RW8uVbEWzQ3mckfTSL5pKAXKSmjfYeQ4n49/gQSbY28Zodo2iNa64XdrjFPEzwjDU010yKxYlJcSnsPpGXDNd3E9bzfEg2VbNsKde6RDA5G6IZGdaLrgujEsDQrSqyYZkbknySvWP4Fjst+dhZytnW5qN+tTox9/ZvyfqUfMJUU9UWz7W2S1nq2ZanmOfu+hJlHeg3QDzhYXn1ot86cfv+O6saEEzQDtywE92ycuN7SV73Vb7NNi3jVZiFDpLywSYY/g9A4J7ECOnicMfYoY+o0fcSUntk72r3eW/KKt3Y+27FaxJs1SjUi2zpjzS3k/3V0EmQfST4CjYknGYecQaIFuKr3Q96mRYnpV2qem4Vnubzk5XkvH5axQtLxlVcsA5nst9OSMlJUSvoOpmUj5FmKw9TDMc955S7n/WeIlbfv6JlXFLv2QWPiyWi2jx8oib9fLVob9pE7hRBuwpo6LXbdo5rsJ0MnTr9/a1JiWgV3rCRFCO4I7hl+cq9/33nlTrZpiQyRxIpqkRjJdGb/TBeCb1tub17svjfTmHJa5IyfkN4De07/qL3JmXWv+97TvG6XGnE0o/IhlM3P01LrLnzOWzaLvv145PSrjEPPwIW9v5G5WSbm7AT3j3uSniNPRdFco3EmOFNvnzpeweUXk/wSUtCblg2j5RP0UYfrA0Yic/RMVoxECkg0f9/BXXbw8JLw06ihhl08Z9/vTpMUl88XM2MkWkginQjukdS4GyC4Z4yTcF67x541XUu2qffUWQ2RH+UIdWch6vVfgzvnMW/tu9ELbjYOPr0n9Oo3LU7+85d8x2oV2eV9NgxXu26SPFPjnG9fkbj/GnPtO5Hz/osU9sHlDZm85lN9Bv2j//FJH17EW0Rbg7ZnC9uyRPvgBXXhlPQzDjxGH3esPnQ8LRuBtgMAgP0luMuHYvKJX7gLn1NzTIN2NDPRwKb8EnUVifv/I3Luz61Tf5TTre0teTnx6E1avCmMAx6UajSqCeG+/QSv3hb97u8RiSAUfXidfurtv5rgJRqq3Hf+4bz9GO03TCX4sUcZU07DLC8AANh32Mntj+/ayUd+5i6YqebGhHmdiuxUeLY98zZn9gM5nNqXzUo+9FMhU7sZDXFOIlo05q2dl3jgetFQiSscwnaC7h2bt2IyqctTVMb35KM/j//mXOelv4imajQQAAD00ODOWXLm7e6iF1ITCkM/PUs3NSHsZ37rLX01FxubbV8p44VwkiTMqf3j8B4t4JsXJ5/4heY6uMghzF16NbWPc75rjf38H9p/Pc154U+8dgcaBgAAelpw95a+5s59XNVfIznyWxiWcBL2M7/JuZFgEW+xn7xFzdM1cmc1lRVzV8x23rwPFzmE/jasBuA1MyovseRzv4//6UJn1nQt0YaGAQCAHhLcRXuT/cIfNebkViVX2c3glZvtV/6aW63tvvOEt3GhmvCTS20tac7sB/mutbjOIUdOWqrmz9TutJ+6Nf7ni7wP56JJAACgJwR3d8FTvHKjlgPTNj7X4RCaFXEXvZhDaVI0VMrWVnPHSa6dLWaU11U482ZonOFShxw6bzUzwjYvSdxzhXpBl2hFkwAAQC4HdyfhLpiZq7umUV20Nag0mSPUhla71qnlvzmIRPK8JS9xrFKFHDtxqaqRxTzn5bsS06/kezajSQAAIFeDu7f+PV63M3e3OyaaxjYvFi11OfBZmeutfIMYRg4s//1CuiEa97ANC3GpQ47Gd2/Fm4m7f+itfx/tAQAAORnc2aZFIt6cezM3PmZEePVWVrEu/J9UtDV6m5bID5zD57hueGvm4lKHXE3vsUK+e0Py/mu9VW+hNQAAENxzj5r5wFgO79Cr66KlTtTuzIE+UuUmtR9tTm+GTCnfviq18Q3A5zqmvGtf4vNf3XSaRfJES23y4RuxXBUA9l+caU4CzWDk5JFLtqttMnMaoby+Igcae8+W3D/JiWhvEs21pLgfLnj49DVIAu61LDj/1FnFxd7s/qk/GRfc0+S/RqmqaqQbqRl96ej36qZorkk+dEPsyun66MNx9ABg/wrtdbvsGbeYx11sTDwZwT3HCOYKz875hqdUpskc+JxtDT1jrFq01CG4wyfng5PQyyfkXf84ySv2+z2eI5in/iI15COcuIi3Cbtds9tFUv4Zl38tWut5Q6VoqdWS7aq72FLHW+tVyjejadgDwYqJxj3Jx38Ru+5hWlqOgwgA+8Xt2k167z1jv3QH273ePOp8NEgOjrjLZ6eq7kdyvOWJzAHqFwn3EluZb3I/txPBucAWqvD584J2FF70+++bkY9uOr20fd6AXJvX7+J7tsovtnM127qMV28nlKrNELqyOCeSxyrW2U/+KnrVfcSM4BgCQM/Gti53Xr3bW/GG/GsaLcz52Rb7aXDXUtXQITNQAR16MMG7679sRmj/kfKr4yLi9RW8Yr27+EVv9Vwt3iL/Vqf3oFAVTpe/4b56t3X2jTiAANBjOQnn9b87cx7hDZUkVqDGEDveeSK4owkAALoR1WlpufwyppzGa3e4cx93l74iqraoSu2de+GmG/bsh/QxR+hjj0brAkDPwzZ+YD/zW7bpA3mTJLHC1N/DiC2COwBAhjN8aXnk/F+ax17ovPWwt2CmmopmWMFv25ZorbNfuyc2bBKJFqBVAUDxHJEMvtGyEOrVemgmMoimaueN+5y5j2l2XLNiOKoI7gAA2Y7v/UdGL7ndm3CSPeMWXrVZi8SCLtohkQK2+m1vycvmMReiPQFAo7p50nf1cceSTowF6B+Pame767HkZfulO9mO1WoNjxnFUUVwBwAIzc134sl0wEj70Z+7a+eToANLMudTw3n9PvOQM7VoPhoTAMHdOOh4TX7lJl691Xn1b+77z2qerQr1EoJD+qWHGk0AAJCd+29pefSKu40JJ6ZKTAZ8VW2YfM9mZ8FTaEYAyF3Ctd13/hG/4xLn3X9qlKjpMUjtCO4AAOFEivvFrribjjpUs4PvCMg8d+Fzwo6jGQEgR7mv3p14+KeidieJ5Od+pW8EdwCAHp/dC3rFLr+D9B2ieW6w7zQsvmstWzcfbQgAOYo3VKo6j2pGO+rGILgDAOTEjbhsRPT8X2q6Hqy0PNVFvJmtnYcHHgDkKt3QKNZbIrgDAOQU49AzjKnTRLI90HcR0/I2LBTNtWhAAAAEdwAAyAhCrVOuoCVlwSbMGBG2ay2v2Yb2AwBAcAcAgAzRR0zWDzxaCBYk7hONM7ZlOVoPAADBHQAAMsc66lvEiATaxZAYJtu6DNPcAQAQ3AEAIHP0sUeTXmXBth+nOq9YF7giDQAAILgDAEDnWTFjzFEacwJ8C6G8uUa01KHxAAAQ3AEAIHP00UcI5gX7Hi5YzQ40HQAAgjsAAGTwptx/hCpsHGi2jPBEfQWaDgAAwR0AADKHFPSipUM1/4PuRNMYEy0o5Q4AgOAOAACZDO6xIlrUT+P+Z8sQTXARb0bTAQAguAMAQAaDezSfFPYRnAf4HhXcW9B0AAAI7gAAkEFmhOQVapwF+y7uoeUAABDcAQAggwjVrLxg3yKEcJJoOQAABHcAAMgs3dQED/QdhOJmDgCA4A4AAJkO7nqwf58QzbDQbAAACO4AABBuhGpmDM0AAIDgDgAAmeUkVRYPFN0NE80GAIDgDgAAmSQ0zwn27xNKYoVoOAAABHcAAMhgbPdckWzV/C82FfJGrpOiUjQdAECPZ6AJAABCxI6L9uZgU2UIJcXhDu6uLRKtItGi/oy3iNZ60VqnZgTJv9/xekH+CmZEM6OqjH1+ifx1SKyQWDGSV6zJv4jk4bz4PM5ES51ob+Tyz6Zq0Vyr2e3CSah/pJuqMfOKaUkZkV/5xapJC/uizT6RbOdtDUJ+NVXzxj2aPDOT7epNl26oUzGvmBTIk7CMFPVVTVfQi0QL0GaA4A4AAJ+nom1TNdGD3JzViHu/0P0ibY28ciOv2sxrtvHanaKxijdU8qY9muem3idQQjp6Han/J8Te71J/ITTONSNCZXgq6U/7DKR9h5KyEfqg0XTIQTJI7dfnB3O9jYv4jtVs1xrZvKJ2J2+tV+0p4+ZnG1O1pOCqUGhJGS0tpwNG0iEH6kMn6KMODbqCoudcXA2V3qZFvGId372eydar2y3cpLp8Otrtc63HOYlE1blXOlQfNJYOGaePPES2JO5RaRbobNSxmAfBHQAgVBKtvKFKCxDchcxmtO/gcCQjwet2eqvmsPULeM0O0VIrmmuEa8tfR3VFqEGM1LD6VzzEP/WfUn2Ytga2c7XK+rpBi/upHD9otDHhJGPiyftbgufVW50FM/mG9/ierWqQWIZNw1SD61+yvOHjlhTtjay5xlv/nvwW2nsg7TfcmHSyedT5pKRsv2k75n041/3gednh4bU7RLxFMywiI6A8LY2vbD15PsvTuGqzt2wWiRbQ0qGy62geeZ4x/oTQFmAVLXWscpOfjR0E56pXnNauCN+1ljdW+c/ixLREY6WvArhEE5Tyrcs82fLBVgHtoxX0oeNz61pAcAcACFPGqNslk1aAxaZCdEyHyHJcaKj0Nn7gvv8027pCzdlwbTWKKcO6GSFWp0pVym8nuhoNlX8dSeX4eLNoree71nhLXyMFvcyp04zDz9GHTezxg3CySd23H3ZXzFYzOpgn8zrJK/x0H2cfqKFZhjoKsg3bGrymarZlifPWw+bh55jHX0LLRvTgphPtTd6KN505j/CKdcJNqiaTkd1/l0/tkGCqDlIkT+Nc9p3Yni3eitfp4HHWSd8zppxG8opCd7ZsXJi47xrNiPr4V13rlB9Ezv+fNP50e9a93uIXg/RqZB7n/m4RhJhRe9Z07fW/p1b2pInnxn70V+OQMxHcAQCgcyltWbB5MpzRQWNVOMtWT6Nyo7f4JXfxS2z3+o5RTDVtI+2z0lU3wNyb0WUAbW1w3nzAnTdDn3SydezF+kHH9cxe3O71MmG7C5/Vku2yC5QKkVYX21AdIy3VgK/d477/jHXCpeYJl5Lifj2v9bwlLztvPij7k8RIve2xurbXAaUajZLU6cd3rE48+BNjzJEy+BpTp4Wss6KpAWniYwzbszXupfunc415vn76p0/LILe7dN9w2cfz9BDcAQAgaFJjbMPCQEPIgnl6+fhgD790PaNb65xZf3cXvcCrtxErSiL5GfrBajCeaJE8wT33/WfZqjnGoWdaZ15P+w7pSeeCM/sB5/X7eM121Quy0rvBFtFoqgFb65PP/8FdNity9o3Gwaf3nMuobpf97G+9Ja9qbrJb+pCyB6WZ3roFbOty45BvRM79z3Cde4T6uiHIeJ321Q7qR9NuvB2l/b+cjTsngjsAQE8JHDXbWMV6jQYZrxKCDpuU6Q/q2u4Hz9kv3ylqd6pnX6CZG2lNCSRWKNykO+9Jb938yHn/ZR5xbg84DURTdXLGzd7iV+QZ0b0V+lNTvfmuDxP3XWOd9L3IWT/Vovm53nreqreS//ylqN6uJmx0Zz0iItuKe978f/FtKyIX/K8x+VTcwSADUMcdACA0meODFzQ3EWAQyHNp/+G0dGhGexeVGxP3X5t46EZRvztVwDGandT+Md3UrJhoqEw+eL39zG+0jpKIudt527U2fudl3sIXNMP86oW8aYqfRLPyNMGdWfck7rua1+3K6dZzZj+QvPdK1Z+UkV3v/qFJamixQl67IzH9amfW9HTOvQb4su42mgAAIAxEvMVdOVvNOvU9VUa4SWPEwbRP5krKeCveSM64mVdtVcONoXrLbFgaZ84rf+X1FdHLfk9yc+SYrV+QeORnarQ4lp/RqbeEyvjuLn2NN9fFfnAHHTg6F1tPdtv2pmczltEMLS9Y5iafulW0N0bO+69cnH0BOQQj7gAAoeAtf53vWqvp/lcfCo1S/YBDgk2t6QLn7ccS9/+HqNlOYgVhTCeyHcyI9/6zyYdvzMVxd7Z5SeKhn4o929VocTYWzMnDyjYvloeYV27MsbaTfbYX/uS8evfeGJ35kW9VWdKyX74r+eTN6V9ACYDgDgAQKiLR6r7zhPDsACncdWlpuXHg0RlK7W/cZ//rFhWIrRDvY6pGjqPe4hfsp/+fqv6eQ8lzz+bkQzfw2l1aNIvNS0isMFUy5YbcmjPjzH7Qfukvam6Mnr15BFQnkZg7+wH7+T/ihgYI7gAAPZn79qNs8+JghVkE04dNysysBuftx+ynf6OGEtNSNF1wNSOIuSpbe84nX/LvME/90y5mdyPizHnEXfBUznTb2psSD9/IqjaTQKld7e7Z0YwdDZiO1pMieWzLkuSjP1cbFeUCb8UbzvN/UK+AAhVF5anChR+fgbIZedcrAxLNsOxX7nLeehj3NOgmmOMOAJBlbPtK+7V7g+3FKBOGETGPuzgTwWjpa/bM21RG7EoRcZmKPEfInCQ4iearLooZUeOjhvlJkJL5yUkKu10kW9T4papc3qmfSHX5U+zn/6CPOjQHpmunPirfsIhEY76Co/x33KTaj9aM0LxizYqq3pSMrcwTTlJt0mTH1b5XZrST05mEkAfIWzXHnvnr6KW/zdhErE42XkNlcsbNqV/Z37x22UpuUp5sJFZAYkXqJOwoiShPTjsu4s3qH8km7fSpLs9bzpxnfkNLhxoTT8bNDRDcAQB6FFX77/H/1tobg9XqZq4++nBj3LHd/fHUFI6Zt8owTTpZ4UR0BEpS0EsfPoX2H0F7DyQl/UlxKZGhM5Kn0nnH9uyuI5LtQubOxj28voJXb+O71rCqTYSammkGLlyjm6K5xn72d7Grpod8a1Vv+Rvu/H9pprXv31FGds/WiE4POEQfNoGWDad9h5LCPqqqI9VllBftTTLI8qpNbNtKtnWZ6mvJ5u1MzR8ie1buvH/RoROsEy8L77XjOclnfqPW8qqyj/tK7ZwJJ0GL+xkjT6aDxtCyEaRXf5JXROSpInuVTpI314i6XXz3OrZlGavcRDo6lp0JVpY84e0Zt8hOYw/bWyDAVR/kZMNTAMEdACBHOInkU7eyrUtJoInjgstkZU27tttHQz03+eTNan+laEHgWQRqBN3WzKg+YqpxxLn68Em0zyBS2Nd/z4TLDLpzjbvgX97aeZqb1IxIsCFkw/JWzfFWvhXmrYVk1HZe+5vaGFXNkhJfdcRdW4vmG4ecZx7zbX3g6K/e61S01qtdV+c+7q2YrQqMBm06LbVRqMad5/9gjDyEDhkXuoZLDZOz1W97i1/a9+g4UxOKSL/yyHGXGBNOkh2eL+wkf3wt8eqtbNMi580HecVadYl1ouNnWKxyoz3z17Gr7tvPEjtX79a47/tSx2np/+SU/311I0rf4mPm5lwNTwR3AIAskbF4xi3e+8+qzdiD5CqRbDePPj8Dy1KduY96H85VnYqAqV24SUJ1fcKJ1teuMMYe1ZmJB7pJS8vV6tspp8ng7rzwJ2/LUmJ8NDzvK3rqItnmvPO4Mf74dO88mo6Ekzri7qIX2aYlqQWp4ivOE8GZMe7YyFk/1Ucd5udUIYV99LFHx8Yc6a15137uD2zbciIPQdBuHjVES13y6dvz/uPhLs2S6g66IXsyzpv3C9fex96odpzkl5jHXWydfhUp8tVvpGUj5Jd5yJnyv+/MflA2QvCNnIS8qL2lr7nzZ5jHXLj/3NLkLxuozhUxLXfBTLZxoa8tC5yEGgIYMUXzvDT2NOjgsQjuAACwz/Ddav/rVnfuE1rA1K65Sdp3SOQb/9HdM0B47Q6ZWlJP14CDtfITFvezzrzBOv6SNLwToLox/gR9+GT72d+57/5D4yJALIjksbXzvI0fyP9C6M4ANSvddec8ollfmYk9R6bG6OlXWaf9OHD3g1DVdMMm2S/e4c59TA08B537YUbZmnnOvBmhmzBDqLduPlv/3lemdqHZCTri4Oh5N+kHHRf4R0TzrTOv18ccmfzXrXzb8sCNL/uNnuO8+jdj3HGk98D95LamJu8FnL/Htq301s4nPm5mspNmTDylZ+yO3KU7Ih6fAACZTu1qm88b3LefUCsLA8VioYa+rWnX0kHdPkrkzn2cV20JPLVdpvaBY2LXPqSiXvpm8pD8kuglt1lfvyb1It534RRCZVr1PnguhOeAbFhvxZt8zxaN6F/RmKTXgNhVf5cJstMvDUhBr+jFt0YuurVjn6BgU4opVb2LuY+LpupwNR/znLce+qoyMoJrTtI47Oy86x7uTGr/iD76cPlfMKZOU4VQA753IlaMVW505j6OO95X3tN4oOOOBkNwBwDIKG/tvPgd3/GWvqpFonsrWvhnJ8wjzrNO+l53f0heu8Nd9KJanxeIk6BlI2I/ulu9zk7/80qPnHeT9bUfqqnz/uelmhFv1ZzQ5U7VxEy2sKrc/2U9NzuuukDX3J+W1wWyHxX9/h/VWlXmBPvOSB7bscp9b2aImk432c4P+fZVXzpvKlXCyDz5+7Er7vrqxQC+8ndxv+gP7jSOOLcz2T2S57z9GK/eivseILgDAOQYXrfLnnl74u7LeeWG1AyZYHdgYbfTMYdFL7w5A7uWyrDLa7YHm9nMXC2/V/Sy33brWkbr7J8Zk7+myv/5jU5UJFq9lbPDdSrINLx1Oa/cqGrmfCHXoQNGqi7QsEnp+pnm4edEvvnf6qwLuLUnsfKcOY+EpfOjXjnFvOWzRLL9i1/pyGzNXPOEyyIX/CpdU/NJND960a36+OPVIulg30m1eJMz617c/QDBHQAgZ4h4izNreuIvl6pd2T1X60RpxWRcHzwudvkdAQqzdP7jcu+D51U160B5SojIqVfoY7t3yayMUJFzb6K9B6nJ3z4/GXO91XPC9ODVNXk+zHmY1+/6pIz9Z7pAHinqE/3BX9LeBbJOvMw89iLVdIFGjikVjVXuvCfD0HgkEmMbP1C7a33Zr+AmjanfiH77V4HfF331zy3sE73sd6Rfuf8T76Pv1GW/UXbScBsEBHcAgLDj1VtlWI/f9g376dvVwzsS68TMbzXWPnhM7Mp7aNmIzHxmVrE+2OdkjA4YZX7th5l4bg0ZZx59gf+psURVo9+iaoOEBCGq5npjlWy0L3h5wtXfjHz7Zv2Aqd3RZ4h8639o+YTUdKNg3PefEa31IYgthmiqFq0NXzRPhqjJWkMOin7n/3VHHSFaWh799i1qED3QtGzd4A2V7oKZGgCCOwBAOMls4S16Mfnoz+O/Pc+eeTuv26WWBqowEXSWi9DsuDHy0Ni1D2RgQWoHb917qWHFIB/Vc6zTfqTKvWeEddL3SEl/v1M+ZNRrree71obo/JB5vWO7088fbSEzvXn8JeZhZ3XXT44VRM7/pdq5lgdJn0aE12x3F70YhmtL1cb5wvI4zCF5xdGLbvFZ9rETjEmnmMdeGGCm1t5jbXgr31Q3AQAEdwCAsOCM79nsvvOPxH3XxP90UeKBnzhvPSLaG1URaKp3ZmI681RljKnTYtc+SPuPzNzvsX2lWsLo/wO7STpojDH+xMzl3pIyY+JJqRopfh50Om+pY3u25MAp5Nn60PGRs3/WrVtrGeOOMY44VyTbAqVP2aPwVs1WM8tD2lfm8nywvvbD7p2sRXXrtB/T/iMCTXYnZoRVrGPrF+AeCWm4ftEEALA/IpTECjv5va4tnIRmx4UTF/FWtU169Va2ez3fuUa01InUPyUy9RoWySvqfA5JtpP84sip16lSgN29Q+pnfrDgNcgGVQkAACAASURBVNsF5/77GcJ1jHHHyjCd0afXwdOcuU/4+pDyWHiOyInKHroZOftGUtCru89+6+Tve6vfFg27/S+3UEXxNyzkOz/URx8eyj6PQ8snml+7ort/Di0bYR39bfv5P6TWyfq8SgjRDXfhc+aR3+zu7RcAwR0AoOeFdl1LtLgfPK+mdnzFKj3uCeaptaQy9rkJzUmKRKtoaxDtzerP1gbRWMXbm9Sjm1I183XvsDohgfdZ/NzP5bJLYIw+wjr7p8ZBx2e4cURrvYi3EP/D7ZzRvCJ91KGZjriDxugDRvotfaMbvLFKzf8J2w6gn255J2EedpYx5bQM/Cw6aKw5dZr95v0BXgOpnWjbvZWzQxrcZZ/njOu70lX2zzzxu+77z/C6nV9VSP7z3xNlmxaxivV6+QTcgQHBHQAg0J3P4g2VycduSg2YfXlwVy/fmfxTyMDnpWZlyDir0jklNBXTqdHVjP7Zn6d+CmekuF/knBvN4y7p/pHXLwzudcJuCzDGL5uo9wA6dHyme18lZXT4ZLZ7A/GRxWVXjTfVCNnL6nJV7+7CGIkVWqf+OAO1Pj9Kn5ep9aaJti+thv7vzWhFveWzrLNuSOtpn5Y+T9KYcIJx8GkZOvcKeplHftN+7veaFSREMc9b+iqCO3S1140mAID9klAzyJmb+vNLvjhX4+i6TOf58lGtvvJLZLoi0Xy1zFTmRZq+W6ibVHNjivuZJ38/779fsKZdm5XUrtol3qzZCf8rUwX3aHH/zJS7+ezjS9cHjfG9PlUXrbXBZnVnOnrGzUPO0EdMzlz7lY3Qx58QbD8m2f+p28U2Lw5X23FODNP62hWBtzPrSt//iHNJYZ9gFfHlpbJ6jt+FGQAI7gAAn5IaO9/3V2oOTLcOgjJXJFpliopMuzbv+sejl9xOS8uzmSCTcS3ZruKFes/g44sz0ndwdh5g/UfSgt6+whOhor0lvAsrVeH2UrU3p0Yy+WOto84PnpKZt2xWuFrPbjPGH6+POiyj517vgcbkUzU7yBlFDdFQybYsw80XutRpRBMAAGQ4G6vpJdzrGM7Xh08xj75AH3dMdvP6JxE3v0TtEOl7XFAwz5h4cnY+akl/Lb9Ya6re98QetedRk+baIT0juKeXjzfGHJnpnk/5BDp0PN/5YYAdwQRn21aoOV1GOBZZCq5ZMWPSqZmevaObxkHHq+rsgvsd6dd13lrPNi8O6SIBQHAHAIDP8FyRqiJHikpp38HG2KOMQ8/Sh4zT0rrFY1cDyfBJsSsD7tCuZ+dRQnsPIPm91E5G+874RLiO8MI6S4FQtaVUJmsHdfzYgl7G+BPsLcuI/+BOddngbMeqbtkfqhOYR/sfYBx8ehaulJGH0AEj+e71vjd7IvLTqm4PZ5k/1oDgDgAAAYNmv3I6aIw+dDwdPlkNr4Ypr386RGp6bsyiVEsOInkBtrH0QjnizhnpNSBbby1k/iYFJWrKk88CKdQQLbVs2/KwBHf5K4w5Uk03z/zp13sgHXoQq1jrf3oTMUxetZnX7sjCmhBAcAcAAL/UC/0882tXWEeeq0UL0R7pYVqabgih+a3mHs6pMq5tTDlddkKyk3qHT6alw9iuNcRngRRChJPkuzeEpjesm0d9K2sR6sCjvaWvBJgtY1h8zxZevxvBHTp/yqMJAAC6nXyue7bz4p/bbz87+fgvvBVviIZKtErXm1XNtP6KSvyf6z2FcsRdEGJMOjlrLVjcjw4a7b8N96bPys2itT77bcc8OmgMHXpQ1oL7uONIrChA6xEqXJtXrMOlC50/69AEAAAZCWhCxJtFexOv3ODMeUTtHzThROPAY4yDjsNmip2n5gqLHP78TkIvn6APGpvFj6CPOtxb+qpKn/6qJxEZ3Gu2iabqrExQ+cwl5SbNyacGmKCf9m5P74G033C2dalsRb/fYphs+0pMc4fO3/PQBAAAmXrOp7ZtMqMkksf3bHFevisx/ar4Hd9x589AdedOtqhaF0ty9/ML19ZHHJzdbaGMkYeo7Ot/2Fg3eEMVr6/IdttxYsX0MUdk91OoDxComrtsvZ1rhJPExQsI7gAAucOw1LRm1/bWvJt87Kb2289So56eg4YJmJvMjG012i3RM1Yog3t2fwU6aIxWUBLsxQXReOXGLLeea9PBB9L+I7N8Ao48RO3UFqC5DV63U7TW4doFBHcAgJzLnYaqi0J0vnNN4t4fJ+6/TlWXgyAxKIc/PPNISZl+wJRst6Gul08KNGxMdINVrAs20pz2Xo/n6kPGyQbMcuOVDddiBQFKG6njzkK0uhcQ3AEAcoAQahMZn5uD7v1y1YQW9eWpyCIf1SJNs6tJapGlYboLn43f+V134XM4Pn5bzoqQ3B1x54z2GhiGAiP64LGB53vs2ZrNF0RCEDNKh47P/hmY34sOGK15XqBPr1oPoFOwOBUA9svUbpikqG+wKQoqrAuV15knZGRxbeHEVYinupppbVhdXm1GSKxQ1FckH7pBVG+1zrgOi1Z7OKrT8gl+Kwl26wcZfKDGA02V0XntTuHaxO/eQ+nv85CiPrpsvawH92g+LR3Cti4jmuX//sOrNuH0BwR3AAB/PJv2PyD6/T+q2OHzHXeqjpvGmMY9YbeLRJvW3iRaanlrg2jaw+t3y6jNW+uJGji3uhTFzKjGuf38H3lbQ/Sb/61F83G4eizdMEYdFooeRN8h6p2PmuburytLVD0cXrdLz1L5ebU8oKA3HXJgCGKURUvLVQc+yIfHiDsguAMA+H5uCkEieXq6BjuZK1obeEMlr97K1r/nrZ4j/6fM92q8vHNj8JTK+O68+YD8y+iFt2DcfR/9nBydKiOEGnEfNiEMn0XtQdt3kKiv1HSfqYDI9Cnqd2vZGvMWnJYOIZFQdGtp36Edn8l/gSPR3qjeV4Rz72RAcAcACF9s4mofzbS86NdNtcRQfo2YYh5xrmhv9lbOdufPYNtXikQrUUPmwZMlpcTKc2Y/RItKrTOvx+H68gBJc/cMpH2G0qwWgvxEtECmT1azw3dwlzhvyF5FSLWgdmJYzsFe/VWFKOb67agTKjxbNNeQvkNwBUPgcx9NAACQxhxJCnqZR5+fd9MzsR/8xZhwouYkg71G/0x2j9ov/cVb/DLatQdiLh08VgvHmKuaqN2rvwi0PlUINeKevQuNDjkoLBd9UV951QdY3UuIZidkcMdFAAjuAABhYRxyRt7VD0QuuZ3kFWlusjMlaAiV8c5+7ne8GjNiexrBuT5gVFjeGFCdFPYN1sPkjDdWZTO4DxodluCeX0KiBUGCO1VL25trcRUAgjsAQJjECqyTvx/76T/1kYcJu70z2d2Msor1zuwH01Z6EkKCeVQG99AgRaXBzjEhRGN1tjo9apBbfuCQNF1Bb5JXLPy3HiHCTYjWelwEgOAOABA6evmE2FXTzcPP1pxEZ2JBNN9dMJNtWoSW/KLGzc2Vu0IQK6r16h+eD0QK+6iVvkGyu0i2qYndWejzMFo6lBhWSNqORAu1aF6Q/VOJ5tiiBSPugOAOABBKpKQs9v07jMPO1ux48Pu0LhOSGnSHDpyJ9ia2Y7W35GW+Y7VG9Bz8FTxS3I9mq5biF52hJL+YBNoBlBBVTynekpXWUxUYQxPcZQ5Xi1NJgMYWnsPjzbiUoRNQVQYAICOi+dFLbku01LL172mRvGDBwIx6q99mmxbrow7tOQ0iuCqHn2wTTly01PPGKtFaJ5prZRZUQ7mJFsE8raN2vtrf3lEVNiXXTg30ekJtZOuof2rk4KA7ZzK4k7ziEPUt84pJJE+4SU0LUhol2aaG6jN94nBVeD5MZUDVNPegyxXkaQyA4A4AEFqkqG/04l/H77xMNFUHGy9UZSjanbmPxXI8uIv2Jl69jdfuEDXbed0uXl/B63aKxhrhtKvc0xHF9gYg8tkhTPKZ1vj4X8jNcpBCBvfC3mpFY3hYUXVOBpgpQzTPlQdUKy3PQrcnRLOMUmJFavuFADtYUdGJl28ACO4AAJlEh4yLnPOz5CM/V5OJAw0ZEsK2LJGRl2Y+J3URc9mONWzjQrZzNa/eLpqrZb9FJNs13SC6oQqHUyMkO+lkMHqqjT+1SCw8n4hYMWJGhGCaZvo8IdV7j2R20md4Vqbuva5jhfI0DrAFk0z5qlCsi+3VAMEdACDUzGO+7a2c7S15JdiEGSMi9mz3Vr5pnfLDnPg1RUMlq1jnrXiDbfxAJXUnIWRSIaQjrKu61/szzlSR0FC9LrBianFqoEPsuarOaaZPLE4ieeF6WaGpHayCbpMs3KRsQILgDgjuAADhRqwzfqLibKJFjdL5/SYiBGObl2gnXBaiZXn/Hkda6tiGhd66ed7ad3nNDhnU1e+opsHQ1Cay0NFMgsSKQnZSxtTbjyA1DUnH9sOZD+6yz2NFQ9d68lRXS3v9TpVRTec5QZe7ACC4AwBkmj70IOPwc53Xp6s6Hr6rUchwIOM+r6+gZSNC+Evxyo3ugpkqr1esF3ZcDYtaMRzrL0zt6p1D2LoxVA/6BkBwT2R+xJ1zLVYQulPLMFPB3X/SJ2pddef2VAYEdwAAyChCzaPP9xa/qDZh8T98rhu8freMxeEK7sxl21Y6sx9g6xaItgbBOTGjakwUvjzxqibKD9lkIV0nlAohAiy8kD2QzO8LpqbKFGghC+6qqLzq9jCc3IDgDgDQA+nlE/QxR7iLXwpU044Yprd+gTF1Wkh+C+/Due68Gd7yWXuX2ZkRohEc3H3nXZnzQjbiriZbUyPwL+K/7ns6g3v4XubohhbwzE9VOEXQBwR3AIAcYR5zobf8jWDlZXTDW/9+GIpRsO0rnTfu81bOFm2NaqWgGcUBDYDSVNTLaUSdujzTwV0N8cumIyHrH6qJRoHaTvVAENwBwR0AIHfuv2OPpv2G8eqtAfb+JLpo2K2KQvYfma2PLeIt7pv3O3Me4c01aspHrBCHMmgTEqqTkK0wVttd8UBTroVKqzTzhXHUCoHQVVF07UCzhkTH7BodGQyCdxLRBAAAWUrupjHltMB1OTxX1ZbJErZpceIvl9rP/1EkWtVAO5JHp5KnTO6hi56cqfUJgb5FFffM/G9B1NLegLUXu/2Q8uDLTFOllnA1AII7AEDuRPfxJ6T2bQlQg094tkzPWfm0zuwH4nd9j21apGrYpTE5Ca7Ka3iOKgouv+RfMFf9Hc5SX1z9C1/8JTRN5OJxJ5SGLXqqBpdNGmxTMJqFyqSCEyMSuh6jYwebNaQqC+no90JnnhpoAgCArAW4suF06Di+88MAc8Q553s2pzJWBkdeku3Jp25133lC/dB0VZ72XJHK6CRaoKrQxApIpIAU9qalQ2lJf62gNy3so1lRIlumo8T4v7eeGbH/dYu3dr6GupNpOBxOwOqEgsiTgWZj+E+wLCyK3WfrBe1DZmeiESC4AwBAZ9GiUn3EwWzLMuI7uBNKeXMNr96asWnuoqEy8ejP2ao5atebrvcWZORykoIz2m+YPnCU/JMOHENlB0b+Rd/BQUtzaLGiwBM8wkGELHoKJ65ed/gfce9YJGpGMt/bTU3HD1nrJVrV2yH/V4cQRHZKsW0qILgDAOQSQvThk+QjPMAIOjVFSz2v2pKZ4M5rdyTvv87b+AGJ5HWplEfH2kdCSUmZMeFE48Bj6YCRtLS8i1URhZPIvdkyRNs7NShU0dNOqBcgATpmanEqieRnofU4E4KFqbcmNLtdBXfdf3DnmhHJRrcHENwBAKAL9OGTSa8BorHK73RhXRdtjbxqkzbltG5P7a11yQeuZ5sWkWie1ukC7Z4r3CQtKaPDJpqHnWNMOoXkl4SunF9ms2dqz1E7XB/Kjqt10gFG3IUq25+FnbaImlDuuaE6oLy9WQV3w/TfeqocExanAoI7AEBuof0PoL0HsfqKIDmBqOAug0J3LnAUiRb7sf9iGxdqkVgnU7sQwo7TPoPMyaeaR5ynjzoUh/ujzoynOclQfSKRbEsVOApwoIlhkbziNEVf6v/kV28GwtbtSTQLxgLsPia4FsnHdQAI7gAAuUY39eGT2JYlHcWd/QUmk+/ZqnY+KurbfZ/LefVv7pKXU1tUBk/tQmieTaw869QrzGMvokPGddenZF5YBu/lx9BNXwWC5L/JvNQknzAF93iLyu7+65zI6Cl/33RV8Zc/V/ZCfbQeka3nJARzSbharzXAVSJSs4yiCO7QGXhNAwCQ7eg+5kj1kt3/VG3dZJUbRWtd930kb8Ubzut/V3X3OvE2X4ZpJ6GPPjJ2wxORi3/djald00K09yShRBUJ8XMUiZonk2gJV3Bvqxd2PNDySs2KkXSVGJKx12cHjFDVwQhVt8e1hTyaJNDLCpMU9MKtDzoBI+4AANkO7sMna2YsQBahqWnuNTvooLHdkuFa65PP/FYV7jCCV72QqV03ra9fbU27ttvHFGWLBZzd0a3BXZXk9/Vvpkbc25vDFdyba4N+Cy1O2wsfYlp+TzbZzolWYYcouMvrRR1N//sfqz5PHinuh1sfdAJG3AEAsh35ivrSgSMDDR4T3VDV37spD7/5gNi9vjOp3UmQwt6xy/8cOe+mDMwEEMl24SRJSIphyzjufzci2fVKtoXoFOSMN1T67Xh89CuQPoPTfUR9FHmkHSPu8RA1XlONaG8McB4KTqwo7TUAtz5AcAcAyMU7sW4ccIjaLjTIt7AdqwJsueo/hexa6y54qjPLXu046Vce+9HdxmFnZabZRHONsNtCVJrD5xz3VMqXUS8883xEolU0VBI9yEGXQbXPkLR9AtMift9XUNlbU3PKQ0O01IjWhgCXjDxJInmkV3/c+QDBHQAgN+/F5RNEoH0rdYPtWpf+BY6cydTOa3cG3srec0jZsNgVd+tjj85Yo3EZ3NtbQhPcBc0v9rujZ2qyk9q1JzTBnddsD/aORQb30qHp+gAkWqh25PXd7ZGHPjwXL6/fLeLNQfq6glgxtT0wAII7AEBO3ovLhqu6zgF20ySivYnv2ZLuCFLhLn01VUkmUGp3tVhR9Du/0Q+YmtG4KQNTe2O31sQMFD5ViRV/0VOGXjVGa4dlvodoqeONVUGmyghV3qVv+kbcYwXEyhM+g7tsPflpwxPcq7cF6z0KTvJ7YfclQHAHAMjZe3FRKS0bEWw3Tebx7avS+zHY2vm8dkewkVe1+byInPMzY/wJmQ5MVZuC7RnU3ck9kq+Zlq/sTg3RUitCU1iG71pLAm1AK/9dK0bTF9xV01kRv90eIoN7ZZBebnf2eRJtvHIDCfqyYuBIDQDBHQAgR5HiUjrggACzZWRa9Ww1zT2t3GWvqhKQwcK+Y0w5zTrxskw3WaKV7V4fqmFLEitMvazwkT51XU3Qb60PySdnW5dpJMjKVO7pA0YGfjOzz+zuc8RdN9iebWHZgynRwndvCDa1TPY8Bo3BTQ8Q3AEAcpZu6gNGaUGmuQvOeNWWNK5PVSUmt6/SAq1QFFyLFlhn/CTz81V4YxXftpIEnYvfrQp7k2hB6hXEvrOb7KTxul2h+NicsS1LtSDFeeS5RweN1tLa+KSor99C+LrB92wR4QjuTH6S5pqA5z+hgw/CPQ8Q3AEAchgpG0HyivzFvo6Hvy6aq3l9RdoiyPaVqfLYQWaeuLYx+VS9fEIWAtPWZbwtPBPcUw/U4n4kv0Tj/npfMn1WbQ5Fbq/aJJqqg83S9lw6eFx6JympiTeyJ+Bvsoxmx0PS7WHr3wvWDkKQSJ4+cBTueIDgDt2SJXrI78E9HEsI++14wEhSVBrgXKUGb21IY/jjFeuDXSlCZhBiHvnNrDSXu/ilcA23y9tlSX8tVuR3orZusK3Lg9UA7R7euvmqPJH/9CkPuxmhA0en+fzvOzTIED5XrRcC3roFAbZeUknfo4PGqpXoAAjuOZWHiUi2h2iz7i99NiY1TeR4U6vUrmp1AYSbmjRc2Ef4vy1QXbTW8eq0FZZRy1LlT/cf4JirDxilpzvA+fqoezbzLcuCzerJwM0mr5DECvweQWqwivVh2D+VbVgonGSg4077DaN907z7Etk74u7vjRPnbPPirDedPA9FzbZgs4w8h46YrIWszwkI7rCvO1SqmpW6V4Ybr9sZkpX7XUrunsvrd+Osg7ALWqZDJi3mqWnuaaLqnAQZTVARZPBY9ZYg80MK7z2jts8kYXslSGiv/n5n78jP7rSz7SuzfJOv3cF3bwi09ZJwbTpwNC1J88aftHRogNosgqsXRNl+X+GtmqNKAwWaZcSZPmxS+E5dQHCHr2ZYrGpz2IeBPYfX7sr5ppa3RzfBK9bhpIPw04dNJHqQoTjD4tVbRTw9VQVVFOZBOuqeS0vLg9WOTMvnjLd4q+ek+hihSz90yEFqAo+v2TKy38W8lbOz+4HZxkXyFAoyAKx+NX3IOFX4Mr236sI+pPcgv4utqSGa9rBNi7Ladi5bvyDwy4rSoVl5SQUI7tDFWxTV2htDnibZjtWirSFUa78619aCC165SUv7HpMAab8jD5ukGYb/QjEyI6ryGq11abrmvUATnTXdkGErC0MKq95iFesDl63MVHBPVaj0dwQ5Y5uXqP5SNqPnfOG5AcaMOSNFpbR7dtrSh47z23XUDd5cwzYszOYjsmI92/FhoPNQvawYPJaWDce9rpPBKdBOFwjukO62172lr4Q6uK+dl6pyZeT8xW5avHKDvMPipIOQUwOZgfKojC91FWndRdL/mha1QlHV3s50bHe9xS+pfjgN4/NLHzyW+C2NomqAivoKmd2z9Wl53S5v1RwSyQvUu6MlZUb3BHc6dEKg5dHe1mUie7vPykckr9ke5I2TkP+nl0/U0lr/fr8iENwR3LMaJ3VvzbuioTKkl0dbo7fqLfX06QFT8XSTN+7xVs/BSQdhvyvkl6jX6IGWrRPCdq5Jz483IwHXopPMLw/1Ni6U17Iqlx7OI1jYh/Qd6ndpkOx3tdazVW9lqwaAt/wN0VIX7LUqofrIqVr3FEWRHVfh+4lDrBjbtJjvWJ2dR2S8xV3yimZFgyR9Rkv6ZX6D4R50f6Qa6kwguGe17XXeVOO8/Wg4P5239FVv6zJiRnvI9R7Jc99/JrTdJICPbwu0fEKgJXeEGixN2UW99A/QUSeaYDKLZDYucefVu4OVvsn8QMEBU/0PGxPD9D6cKxqqMv85hR13588IXN6E6sahZ3XX6d97IO1X7ncbMtnfaG9yl8/KylFmG97n21cEe0Ryj/QdrI+YgvtcZ88Pwlsb0AwI7lnMkqq2jPve03zX2rB9NNFcY792N5G3xR6z8l03RN0u5437cN5B2E/V4ZNEkP1TNV1Xg47pKK+hqhn6v+RlbncdkWjN5J3JXfCUDEyabob5CBpjjxL++zNmlO3eoGqBZ5y38DlevS3YcDv36IBRxshDuuupWNRXHzZJuL7rrUXyvcUvibbGzLee89ZDwYrJdBztqd9AIch/u2AiMpH7G6TQRcNuTHNHcM/u+Wrx+t32838M14nIXPvp20XNjpA/HQOzos47T3gfzsV5B6G+KQ8YqeYc+y/DSihvrOLpeJtEeg0MsqaFaJyJpj0ZaxmZMu0X7xDhHm5XR3DIgbTPoACD7vLWNOcRzbUz+SFFe5M7f0ZqWWqAxhROUu231X1TtA1Ll70CIfxOHUoVVnbnPZnpPs+yWWplgh5kAZgQJFZkHHombnGfP/8Nk6jyUD4OuW7wyo3hr6ON4N7TT9lovrd8lv3Cn8LzkZzX/+6893SqMEIPa2uqOQn7n/8rr3yceBDem3JRKS0boQUadGdeWmb6kuJ+asWn75o2auihbleA8dGuBE07bj91m6jdGf75e7T3QH3UocL2XcZKN/mOVe4Hz2XyQ7rvP+1tWUoCTdH2XNpnsDHxpO5tveFTZAMGeYNEZXDP6DTIRKvz5v2aHQ804i6chDHlVFo6FLe4f7+NpG47fg61wesrRH0Fgjtk/ayNOLPuVRM3w5Da37jPfv6PhBqdeAmYA8wor9qcfOTnMm3gvIOQKupLB44MUDyBqESVlmnuKlUEGUQkZkQVjW2qzsSt6ZW/estn5UY5Dt3UxxylpqD47wIJ7syaLlrrM/MBefVW5437CdEDDrcnjEmn0G6uQW4Mn0wHjw1w/hsmq9qUydVizrwnvQ3vB1uWKhixIsZRF4Rw54GsI3nFAV70eZ63bj6CO2T9IMijQOzn/2TPvC2Lla20RJs983b7qdtSlSKMHtvakTy2eXHinh+FcGkBgJYqzU7LDggy4k4Ec9nONFQ71YeOD1yMsnYH39bte386bz3svPo39RowR1bdGOOP1weMFP5nv8gu0O71snMSrKBQJ2M7s5/7vajbFWwHJebSXv3No87v/geibkw4ifivhU+IvGTcd//JNn2QgSMre6rOa/cQ3Qw23G4njAknGwccjPvbFxzAwj6pkpo+D7fmLX0t9zd0R3DvAWRQJpoz697EPVdkJVCyTYvj9/xQjfrrejirI6eTFePbV8bvvMx95x849SCM9+UBI0m00P8mpjK6iKaari/RI0V9aUlZoIeiDFjOu//o1mKG7vwZ9lO/ViOVufMakJaW66MOI6pdhN9jaKYW4ajSkN3cC5r9oCqEbwWcccQ8/aDj9G5blvqZXsxhZ5PC3gE28dUt3tqgZlK1N3XvJ0u02jP+T7TUBhvb4oxEC1SfB+Xbv+S2ozpCPl9PEZ3vXu+tfw/BHcJw8lLNiMi7dvzPF9v/+j9euyMTQy+uLfsJycduStx5GVvzrrqtkP3jlLBiorEq+Y//id9xibduQWYrYwD4CO7FfQPcAaghWut41eYu/2Bd1aoLVKCGGmzjIm/lG92VMt9+LPnEf6uPlGtr5c3jLtai+QFmy1BD3pCT//ilzCXd96m8ZaklVeo+H+TdhezLxQojX78mQw/DkjLzkDM0z/b9IQWxomzzEnvGzd343OQsOeMWtm5B4AVgnmOMO8aYchrubF988ZcifwAAIABJREFU4vcZFKBJdZ23NbhvPxbgyupxDJw0YcruhETyRXuT8/rf3feeNiaepI89hvYfQfsMVpE6Xe+GhBBt9byhSj7m2br53tp5WrJNrQ7Z3wYDzKhsUvbh3MTa+fqoQ42Jp6idqEuHhnZjl3CRN03DUivbMIbUDfT+I0lhn9R6O39pVddFcw2v3iLP5K4+Esaf6LzzD+I/JBMiA5bzyl/1kYeSgl7pPMXsuPPync6se1ODGrlXQU8/YKpx4LHeitc1v6tp1TUl6isSD/wkds0DtO+QtH8ktubd5D9/qVZVBmxPeSwiJ19Oh4zL3O35+EvkQ1DVD/H/BtiKuu89S0r6R875Wfq7eYLbz/zWXfCUFokGnKcutGiB9Y3rek5t5bQH937DtEhM8/3CkFh57oo3jUUvmIefg+AOITmLdTUenGxz5s3Q5s2gvQfKO1E6CykILuLNvLFKbZinslds/81eMhCkGpZteN9b/baMSqqaQea3cM/RxtMN+aSU/RyZMKjMKOOOJfklaJb0iObL7jrfvsr/mSwjDq/akobbz9BxtFd/NevG/2QAI+JtXuq8+OfIRf+Xrld2vHqr/dRtajWqqjjxlYXGOQtWiTyDrNN+7H34tpryESB9xuRxT/796ugP71TFhdLHW/VW8tH/VOU7zVigjVrlqaUPHG2e9L2MPgYHjDIOP8d58wGSVxTgfq7rzqzp8i8i592U1h6Pa8+8XRVu1wOXbRDJ9sjpV6k9ueBLbyAWLS1ndb5rxVBK5BF57nf6sInpvUYQ3KGrmVIN/QohWutFU7VI61shIp8iuoGY9QkzqrpGnsOrNu3PL+CCPZBUrWX5xdVGXdECUtjbmHSKdeJ3u7voxH5CL5/grZydClj+Bup0k+/ZojmJLvbDZYdBH32Eu/BZ4n9Pe0LUTPc5j5BeA6yvX93V39xJuItesF/4s6jfpfrVX52TmCfPPbUPRigXq+mjDjUPO8t598kAjSlFYmzL0sTdP4z+4A592KS05E7n7UftF+7Q2htTp0eQWxxnhGjWtGu64w3AV56IunXCpd6KN1I9jaj/75If2Hn1btHeFLngf9V+CF3vQ9btsp/6tVoVsM+z8YtOZn3wgdapP8INbR9XyrBJLNAeZLolqrcnHrg+76rppPdABHcIVXwn6pWfbuIdW2YeFaEdugvjufmpDC/zk2jc4771kLvweeuE71hfu4IU9UUTdelkHD5ZVVrg3GduJ4bJq7fylrquBizDMsYd6y15RUVh/zGFUvkJ7Gd+IxKtkTOu63TnwVs7z539gLdqjjq/rH2lLs+h/YaZx3zbef3vItkexqkIhFqn/thb865orgmQPtXvHuOVGxJ3fjdyzs/NYy7oysQPvmut/cpdKnfK/0gnjotrG0eeZx59QRYugSHjrOMuTr7wZ+K/+9pxGyfEfftRXrMt8s1fdKnnw5m8EOzn/8ArN6u5HEFPMM40MxI552f7YbIMHNzHHKm98tcg3yHkEeGbF8fv/kH0olu7PkUwx54OOGMAoKsZPvUORyUtu91+8Y7E3T9gW5ejXbr0JNtbmdH34Kiugrua/9ZlxsGn0YGjhBtwO2eZ8qnhvHxnYvqVbOuKYN/LXHfJy4m//VCeOe7y19X0GGNfUVVwwTzz5Mv1UYeLzO45Gjh9nvhd9Rov6Ks8Mypa65NP/I9sls7t9yyaqu1nf6fKZy18XnUbOjEqIbtGA0ZGv/U/2SpaYJ76I33YxMB7yspPa8XYh+8k7vqe7Ex2btcOb938xL0/Ttx/Ha/ZrhYZd6Jb6Dnm8Zcah5yBu5mfy4T0HRJs1zn53Ink8+0rEvdcIc9z1TfuxDUSb1E7YARajh8CGHEHgDTegHUSK/Q2vM/v/XH0st8ZE05Ek3SyM1TQS+8/gm1fpen+MhMhwrF51WZVFqaLP7qwr3nkefzp/6cFGunUUuPuZsRb8aa3aYl58OnmsRfR/geoKXlfGHo8Rz41ee0Ob+Vsb/nragfWRCsxI8TnIhM7aUw43jrxslRhuFBPb7O+frVMgWomQKAiM1pqR0nOZU/GW/++zK/m4efqY4+UR4fECr4sSas+TLyJV293P3jeW/kmb6wiqf25O/O5Zc8tkhe55LYsDhjLm0nkgl8l7rxUzYYK+tohkif7sc4rf3Xff8Y46HjzsDPpoAPVjPkvfe0gRLJdtDWyDQvdhc/wbStVcUkzoulWZ04wO64fdFzkvP/ErczXnaOo1JhwUrAlDalDpln5sn/rvHKXu/BZY/Jp5qFn0n7lWl4x+YoyNa4tv4Xt3uCteEN+6WOOiF1+B4I7AOzfoTNWKBp2Jx/5WezK6fvbS8w0doHosIls6zL/i0SJYbDtK8yj07BFjnnCZe57T/PqbYH3YksNdmp2uzv/Kfe9mXTwgfrwybTfcFLYRz5KhUzwTlIk21QNnJptfOcaXrNDE6nVpUQPkC89l5QOiV5ym/rGYKN0WXnMWvKjxu/4jmis0oKWGaBU9WQ8h21cxNRunTF9yEF0wEjadwgpKpXZNHWAhObYqlXrK3jdTrbzQ9Gxzo9QYnR2yyrOZJct+u1fycib5cYbe2TkzOuTz/xG7fMadI8R2fMRQjTXuguecuc9SXoN0MvHk7IRtNcAkt9LvdXRdc3zNM+WEV92HXnNdrbjQ7USgBrqZ3V2irxwEvqgMdHv3I4aZb7vG8SYdIq8aQRfay72HmU1V/NB+UXl8R08Vv5JiktJrFgeZZKqoSQPioi3iIZKXr1V3lfVfs/yB7lJbeTUnCv4g+AOAN3AjImmPcnHbsq74QlM8ezc018fNtlhXoDKjFRXhWjSUWWF5BVZZ/wkef+1qcnrwadJfLRchO9ax7at2Jut5eNTPiBdW406y3+qG2TvlJiAI6meI/NQ9OJf0/4jc6YXNmhs5Nu/Sj70UzWMbZidbU+15kFmDm/jB+ooyy+Z2uWXbE/ZqrJtqa5qPelmV6tnCi4bOXL2jebxl4TiXnLy5bI34i18oTMTzcknG4GL1npvxZtCno0dtd7l3+/o+Mmv1L+mWq/rlZHdpOwYRC//Sw6dn2GgjzlSH32oKu/Wid5Ox1FOHWheu5Pv2fLpoywPq3pj4qaWsH985+k4yqqDmnszxhHcAaBbcqdmRuXj1n7ud9Hv/xmrfjsRntU2TGq3AeE3rFCd7dkq4i1pqaduHnaWt2q2u2BmsIoon3/CmOTjnNoxS6TLqUjN37jo1pzbzsY89CzRuMd+6jYVE/XOPnnlmWBY5JNcLvZO4khH+ZS9VJB1ra9fY519Y1iuhEhe9NLfJtoa1S6BXflNU6WWP7mWOk5IU0vngKuTICVl0Svu1kdMxi0s6FG2TriMbfgg2LL4L+gBqAT/2aMs1P9MY03trA8E4HQBgO66F1sxd/HLGdjFvUeiJWW0bHiQhVNqLyS+Y3WafrweOftGfcg4lZXTczaQriUkIj8JKegdvez3aZkOlHnWqT+KnP1T9RKDp2t6D+lyq34WZ4J51hk/iXzzv8J1J8kviV1+hz76CLV7VNr+o2luPWEnSJ/BsSunG2OPxO2rM938qdOMg0/TnGTALa72eZRpD9sSHsEdALqNbmiJVnfeDFVfHII+cQr70P4HCM93dReiyrOwHavS9QFo2YjIJbdreSXZr7oguEi20oFjoldON484N3ePqXXm9ZFzfq6mUKerO5RGnis7FdELb46c+58hfEVGeg+MXTVdH3+8yu6ChevDCSE/FR08Nnbtg/row3Hv6rTIN39ByoZpLp4XCO4AkC3RAm/126xyI1oiMDNCB4wMsviSCM9Vq+vSxzjw6Nilv1GFNbIYNOWP9hxz6jdiP3lUfp5cP6rW16+Ofu+PpKhU2O1hqYcjhEi2kd4DYlfcrXYLCutaPVJSFrvmQfO4izXGQtTzkV1rN2lMOTX/hif08gm4b3UpkpaWRy/8P7WrWgh7tgjuALBfIGr+BlObgELwG3T/kWqpFg+wLaiqWp3WuubGYWfFLv+zGnfPxqNUBcrifpFv3xy75v5Mb97ZfT2yI85VnZCxRws7sXcJXRbJD+AkjEmn5P3Hw8bUaWG/nUTzo9//U+SiW0lB73ROm+m01F7FkbNvjF11H1bhp+eGM/nU6KW/Vbve5lp5dQR3AOgpdNNbOx/N0Jkb9ICRag9a39mOUF201vE9W9L8KJXZ/arppHSoiimCZ+I3l7+y52ieax71rbwb/qGGgXvW+mZ92KTYNQ9Ez/mZqhQue0RZie/yh9rxVK30/5W5kw4ZlyutZ538/dhP/6lPPEmdkJ6boXPyMx1KoWKlk9BHHpp33cNqIe9XFA6H4D3b6A/uVAVP1Q1HoEEQ3AEgswjlezaLRBtaIvANuv8BamTR/1pGGdxbZHDfnPZPYow7Nu/GGWpEVuZppztHOpknEq3yF9FHHx677uHYD+/KoUAZ7LIo6CUDX95/Pm1MOV3TDfVbZ6wmvWzkZBsxLePws/Nuesb6+tWd3KQpiz2f8gmxax+KXv5nNZ3MtYWa+J6phCc7Wqp6TP/IBb+K3fhPfezRGqT9hjN1Wuy6R/QxR6rsjmkzn2scNAEAdHNCSQWFup2k+xKYqjztqkxJ/d3TPFeEf+OeVD112mcg27aCUL/3at5axys3dUsvorQ8dvX97rv/dOY8wnasUnsT6mY6fwBzVV2O4n7mlFPNw881pn7dV3GJjkPP2L5mZgsVizkP2yFOBdAHvVVvufOe9NbOE22NapJA971e4ExmXNlnUI187MU5vbexPAPNYy6U3R533gx30Qt82wr1d61YN87Rd5PCc/VBY2SsNI//TkjnbqXK8GvExykkLxzOQnt85aWRd8MTzlsPy0uD7d5ArGiabzgI7gAAX/ooEVwNKHaf/F76sEkBsrjn6ING50SNMH3Cybxxj+Y7uFO7XbWD/+rvwbISMY+/RKY9d9mr7rx/8Yq1qTYkqsQhpQGLuAmNC1Ue5KOBUjporHnIN/SxRwfabZfEivweeieRlgr33fIknniyMeEkb8NCtvINd/ksUbtz78nZUcmOks4XyJMxTnZXOiaTCE56D7KmTtMnn2aMObxn1Mgj+SXW6VeaR5zrrZvvLXlF/qnZ7Z+clh3VADt721Ltpr5Sp6hu6AccYhx+jjH+eFo2IswNQodN9rUJF/fCPi/fillfv9qYcqq3bJbay7lq0yfXBe1ykUeRugWFrzO/70Mscm3+kEi2Je7+gffhOzn3ag9gf43tXNPN2DX3d+P26cwVTqDXqUJGYZLGbWu6Tyd/tVg6ayF/4Y+Jt7CNC90FT7Htq0R7o/yf6kGoG4TqqbjZUSE79WdqD5S9MYgzIZ+UahMinUQLSV4RKelvjD3KmHIaHTha/s/ubB9BrFj4B+1EW6PaHnXFG2zTYtHWIB95WqJdcE9tjKo6SJ9rXvUc/6jz09HCqjukGjk1mCoflCRaQAr76MMnGQdP00ceIv+6x95qPIfXV8h4wNbMZRXrNTsu4s1qBXDHtrIq6umpXhDd263t+LOj9ToC+senKGdq7zDZdLFC2mewcdBx+uRTadnwzuzrGeI7htrMK0dm54v2JrZlqbf0VbZpkUi0dnyl7jn6R/ecf7su9u5Q1nHz+ejgqryuxgvU8SXEOOI8tfg+p8byEdwBIPeDO2Tx8LbUsQ3vyfjOa7aLpmreWifaW1QlZtfWGJeJU83zMQzNyiPRPJLfixT2JkV9aWk5HTRWpskwD15m/cLhFevZzjW8ciNvrJTtLLOLSLRoiTbhJNTcX8ZTGZ2p/pJMLWZE9UwieTJrynROCnrJxEnKRuhDD9LLJ2rG/jXNQOW8nR/yXWt59TbRXCNaG1SIjzerNO+kTk6h7V09Is9PmeatmOrJy9bLL1FNV1JG+/7/9u41OK40v+t4X07fL5JarVZbsjySbXk8M/EM49mZLFnYyu5CqF1gs7BJQYWCDSkSXiy3SqpSbAqKdxQF4U1gX6R4kYStAFWkIFAEainYSlJUgJC5ejzji2xLlmTd1eqL+nL6dDd/9TPWaj0ezzmPWtI5p7+f8ro83m7pnOecY/2e0//z/C8Ep66EZ1+Wc5WT0VUzk44c1pUP5ero7q3LRPfg4LZqB9dFq35QJnRQFHdwXRwEevkVNj66NBLpYCwdTI0EkyMHn0vkpoLj03JpeO4pGoI7AII7BnSoJSHVJCFVe2b94Men1X4c3CMHJarRVDCVDaZz8lOTsdL42ScZJdCo9lT0lF/9GpiDgBI+uHd4UB0RiR/MjiS4ywTJrXVBZzN61Z2D4N6oBszm4+DeOxLcQwfBvZ/dD05Oye6e+DgOcmTliqjtBpr7H10XHwV3dcvgcXA3ogdH9iC7Zw5Su8Yne25CjTsAYDCCIwX5xTicyNjG0x6o03Dt6GXG/VwjNMxHVrJ4IjNUu8xykAAAAADBHQAAAADBHQAAACC4AwAAACC4AwAAACC4AwAAAAR3AAAAAAR3AAAAAAR3AAAAgOAOAAAAgOAOAAAAENwBAAAAENwBAAAAENwBAAAAgjsAAAAAgjsAAAAAgjsAAABAcAcAAABAcAcAAABAcAcAAAAI7gAAAAAI7gAAAADBHQAAAADBHQAAAADBHQAAAPAVgyEAAOD4Op2OaZpWX6ev1+up/ysYDIb7QqFQtE/+zIgBILgDAHDiGV3s91Wr1Uaf/E2321X/r/ze6zt8S7BP/qDiu/ye6MtkMqk+lewZWwAEdwD+T1GSio7mJG3kJ9Fut48/mOqI+Gk86/W6xPRKpbK3tye/yyg9da+f/UUsy1JjK1/q8C/j8Xg2mx3pkxAvgZ7rGgDBHYAPSYpaWFgYyJfqdruFQuHSpUvDPJ7lcvnWrVuDGs+LFy9OTk56ekBM09zc3Nzd3ZWR2d/fl50KhUIS0OV37SnNE3/TarXkW6ytrRmGIQl+dHQ0l8vl83nmkAAI7gB8pd1ul0oliVOferPzU3U6HcuyZmZmotHo0I7no0ePtre3tVPpIVUrIoPp0XGQk6FWq62srGxtbanidVWqfvyReWqUVzMBGTGZiMr5LN83mUxOT09PTU0N89kIgOAOwG8kTh3WEB+HJKdGoyGxyes3iY+TViU4qiLsgQR3jw6CnAMPHz6UCYwqW5dTyzBO4yemmhsE+h9WVKvVW7duLS4uyuSnUChkMhmudIDgDgD4fmxqt9u7u7tDG9wlsNbr9ZO4qewVGxsbq6urW1tbEp1P6P66zVNRTURbrdbt27eXl5dn+rj7DhDcAQAfkawmwd00zeFMSBLcm81mJBIZwn0vl8tLS0vr6+uWZbnnmVp1s18Oyp07d2TbZmdnp6amjv/hEgCCOwB4XigUqvaNj48P276rTxuG8IHITqez2CcTNjkBTqcqxulpGegvRHPjxo2dnZ3Lly8nk0muVoDgDgDDrtfrbW5uDmFwr9VqqsB9qPa6VCotLCxsbW25f+VKdWhWV1flMD3//PNDW9AFDK0QQwAAH49H29vbqo3OUNnd3VXPYg6PlZWVt956Sw63YRheqT+R2cX+/v6777579+7dITxLAYI7AOD7JMA1m81SqTRUey0RcH19fXhut8v+fvjhhzdv3lQV7d7aeNlgmWLdu3dP4rtpmlyzAMEdAIaXpLqtra2h2uVKpbK/vz8kTz1K2JXIu7i4GLDR69SlP7/7NjY23n777Xq9zjULENwBYEj1er3d3d2n9rT3q/X19SGpk1GpXSKvWv7/JE4e0f2Yk1jVXnZhZ2eH7A4Q3AFgiP9xDIUkCUl2H5L9VX2XPNovyWlql5i7vb092PIYyeUyhu0++U/DMOI/KBKJyEllWZa8QF45wDmSfK9yuSw71Wg0uHIBf2NVGQB4imAwKAlPsuyQLNwxJH2XVGof1JKXh61h5WzJ9KVSKcnokqSj0agqZTmM9SrZt1qtZrO5v79frVZrtZr8ZfCxY2b3SqXy3nvvvfrqq3RoAgjuADB0JNttb2/Pzc0NQxIahr5Lkpvff//9nZ2d4y/TrtZykRMjm80WCoVcLheLxWT0bOZvifuWZcmAy8ZsbGxI5m6328es21E1M7KDr7zyyhCuxA8Q3AFgqKlOTPv7+74P7qrvkr8fS5WsfOfOHUnJx0zt8nUktafT6YmJifPnz2cyGY0vIkMd6ZO3z87OSuBeXV3d3Nw0TfM4myd5fX19PZFIXL16ldaqAMEdAIaLpDRJQmNjY/7ezVqtVi6X/X2b9uHDh0tLS8esBZLILrF4Zmbm3LlzA2xcOt5XKpUePHgg8V27ckbeJQdR9lTmAzKp4PoFCO4AMEQOOzH5O9Tu7u5alnX8AhLXkkx8586d45SSqzVhpqen5+bm9O6yfyqZH2az2bW1tYWFhUajoXfKyQ7Kdt6+fVs2cmRkhEsYILgDPtXrBiyz17HkR/TBn09teQ1JEqGw/Aoa0UCYS/Lkj3N/nT6bqUhikEQoiX35fN7HA+Ko79Lh85Re2UHTND/44AO12XpfQd1ov3z58knfxpbTUr6FBO5bt25pr3ujnquWr/CZz3yGYneA4A74y0FM7wQ6VjA5Epp/I3Tucig7EUikA8FT+YEn37pt9mql7vZSZ+lGb+vhwSKt8rP2IEVRonoiITUWi6VSKftLH0rg29ra8nFwV32X7Ad3iZWtPq9k97t378o+akdYSe25XO7q1aundgM7k8lcv379zp07i4uLepst79rd3ZW3X7p0iaseILgDfglxZiMYT4XnXot87i+Fn/9sMD0WjKfPZmParV693F272/7f/8G68b1eaT3ADfiTIQn14sWL77zzjloYxM5pojox+XXFFdV3yWZwl5fNzMwsLS01m01PBHfZu5WVFb3SdvXhzOTk5LVr10756EvyfuGFF6LRqMw69D7fkLdIcJcJJwUzAMEd8L5uJ9BpG1d/JPpn/qbxx37s7LcnEguOFMLy6+rnuusL5nd/1frD/9Rr7geiicAQ9MQ51SPf7SYSibGxsc3NTTt5TnViKpfLvrzpLrMXmZbY/PBBXiZDl8vlHjx44Im9M03z3r179iujPp7aL1y4cPXq1bMqOLl06ZJ861u3bmkEdzlv1e5fv36dqx7wDTqnYihZZsCIxr7684m//WuuSO1PXJbFy/Fv/LP4z/7L0Ln5gGR3DJrEoMnJSZutK+XF7XZ7Z2fHl0Oxt7dnv++SjFihUPBQdfvy8rJ2kYzs7PT09BmmdmV2dlbiu16bVdnyra2tjY0NLnmA4A54NbMF2s1AIpv46V+O/vgvBJNZ126ozCgSf/c3wlc+G2jVOWyDJYFmbGwsFovZvNMsuVZVy/gyuDsqesnn8zJ6PS98CiQTksXFRb0imU6nI1O7l156yQ0Pd87Pz8/MzFiWpfFeOVL379+3WRUGgOAOuIxlBpKjiZ/9FeONr3rg+px4LvHNf3WQ3c0Gh26AJMdIapfsbjPQSK4tl8u1Ws1/47C9vW0ztcuLs31e2bulpSXTNDU+H1B7+sILL7hnSRbJ7uPj4xr5W3a/Uqmsra1x1QMEd8Brup1AOBz/iV8yXv6SVzY5mM3Hf+afh4qXemT3wen1epLJcrmczVSn1saWjOuzcXDUd6nb7cqIyYs9cfu2Wq1ubGxopHY50JFI5MUXX0wkEu7ZnWg0euXKFdkwp591yAjI8VpdXeWmO0BwB7ym3Yp89i9GPv9THrtKJy/Gvv5LwVjyYOKBwRkbG5M8ZLN6OBQKra+v+yz9yFTEsiw76VbyooyVBHev7NrKyoqjNS6P7unc3JwLe+XKJsmGaRS7G4ZRKpX8N+0ECO6Ar3U7wYkLsR//hUDQe+ujG6992bj+5UCnzWEcoGw2m06nbd7ClHTbbDYrlYpvdt9R3yXJi8lk0ivBvV6vP3r0SKPQRSZmko9nZ2fduV+yYXII9IrdHz582GN9KoDgDnhGuxX9wjeCuSmPbn7sK98MnNUa8z4lWTyfz9uvppBUJ0nXN7vvqO+SjNLo6KhXVrJfW1szTdPp7XZVJHPlyhXXdhuVDbt06VI0GnUawdXT1Xt7e1z1AMEd8IKOJZE98sNf8/C1On31YOVKKt0HqlAo2E9pqhOTb6plNjc37dddqAU0vXGtdzrLy8saRTLyxpmZGRcWyRwlU005aTUKZuTslWHhkgcI7oAH9MyG8UM/Ghyd9PReRD7z5/p32vi8e2DS6XQ2m7Vf5l6v10ulkh9msv31ZBz1XXJ5oj20tram0dVV1QJduHDB/Ts4NzencdNdyLRTTmCueoDgDrg9tweD4fD864FQ2NuX69R8aHI2YFHpPjAS74rF4hB2YnLad2liYsK1BSRPTEhWV1c1Qq28ZWZmxlUryXySTCZj/6Q9Ou1sNBqsCwkQ3AH3/zC3gmOTocKc5y/XsXPhqSs9y+SQDlAul7N//1Kyu0ReH3Rictp3qVAoeGK/KpVKrVbTqG6XyO6J2+3K+fPnDcNwOj9RS5r6so8YQHAHfKTbCaZzwbGi53ckmgiOFAJazc/xSdRiKTYr1yURSuT1eicmjb5LmUzGE7sm+6VXJzM9Pe2VR28D/RKvyclJp49bhMNhX/YRAwjugK/0ur2DyJvI+mBfgskRVnMfLEkzIyMj9jsxScjz+pLYGn2XotGo+/fLNE05NBq322XvisWit07a8fFxp3uqmjGxoDtAcAfcHt2DRjRgRHywJ8Fowovr0LtcPp9PJBL2H1Hd3Nz09JLYfu27VK1W9/b2nNbiS5admJhIpz221qpscyaTcXrTXZ29dFEFCO4ATi28h1hYZrCy2awEd/tl7vV63btLYmv0XfLKejISSTVGQ929DnptPiwTqtHRUcf/eASDtVrNT33EAII7AAzZVGiYOjFp9F3yRJ2MevLSafWImplMTEx48VBOTk7KrEPjEVWNGQ4AgjsAuIXTTkx7e3serTfwa98lp+vkHO7gyMiIJ2YmHzc2NhaPxzVmOLRQBQjuAODL2R3zAAAb/0lEQVRhTjsx7e/ve7ETk4/7Lsl+aUylPDQz+TiZak5MTDi94y673Gg0yuUyVz1AcAcAT1IBzn4nplar5cXgXqlUfNl3ScLr7u6uxhPDsVjMKzOTp8rlchqdmJrNJjfdAYI7AHjY+Pi4/U5Mkn4kKXqul41ss6N6Eq8skthoNGQqpbF8u1dWuvwk2Ww2mUw6nbF0Oh1WcwcI7gDgYb7vxKTRdymVSnli1yqVil7fJZmtefqklVmHHCaNRSHl1KWFKkBwBwCvUp2YbL7Yi52Y/Np3KdBfwV1iqKPgrpaol9Trg5PW6R13FdxlqsNVDxDcAcCr8vl8LBbzaycmv/Zd6nQ6Etw1FoLMZDIaq7K4TTqdjkQijs5D9ZDG/v4+lzxAcAcAr8pmsxKDfNmJycd9l0zTrNVqGnUycrgl8nr9pJXph/32YUfPXhaWAQjuAOBhGp2YvNLLxq99l1Rwt79UzuE0JhwOy+TEByetpHY5Uhpry8gp4aHPiwAQ3AHgSU47Me3u7nqiE5Nf+y4F+gXuTmOriEQiXi9wPzxY6XTa6QcOQiZyGuMGgOAOAG6hOjHZXxRS0o/7q2VkamF/mXNv9V1Swd1pgbvsYzwe98qaOXZOWqfL7UvQV59UcMkDBHcA8Cp1s9nmTXT1kJ9kYpfvVKVSqdVq/uu7dLh3Tu83S3A3DMPTK7gfJVNNObgadS8ydFzyAMEdADxsbGzM/jIdnujE5LTvUqFQ8MrB0uslpMpLfHPG6pXKyAyNO+4AwR0APB+DRkdHfdOJSdXJOOq7lMlkvHKwJHpq3GmW0fBNnUygX6+vsa6ljFuj0eB6BwjuAOBh4XDY/hLmqhOTm6tlZFIhUwtf9l0KPH7C0un9Zp/dcQ/015bRmMAQ3AGCOwB4noRXR52Y1tfXXbuyXqlUstlV1Ft9lw6DO3fcA/3V3DUGwezjegcI7gDgYaOjo/7oxCS7sLGxYfOxVHmxh/ouHSe4RyIR3zyZqujdce90Otx0BwjuAOBtvunEVKvVKpWK/dUSPdR3SWm1Wk4Da7fblZjrdAVJl9OocZfTW85blz9XDYDgDgCfrlAo2M92ru3EtL6+bn+rZH891HdJzZcsy9J4owR3jWVY3CwWi2lMRWQAZebDxQ4Q3AHA29Lp9MjIiKerZZz2XYrH496qkzFNU4K7xiLuEnN9drqGw2HDMBx9+CDjJqPHHXeA4A4AnueoE1MoFGq1Wm4L7v7uu6SCu8anHGqK4r/TVaPGSYaCO+4AwR0A/MBRJyZJTtvb266qltnd3ZVY5su+S0q73ZYB1yh68d8dd9UI1uY6SEfp1RoBILgDgLs47cRULpfd04lJ1cnYfLEEPm/1XToMnXozJZmP+e1neSiksVPq+VQXPpsBgOAOAM447cQkAWh7e9slG++o75Jsubf6LimtVsvpHfderydj4rMlZVRwd1rjrk5aSmUAgjsA+IR3OzH5u++SonfH3ejz2YkqB1rvYwQ5t7njDhDcAcAPstms005MlUrlzDfb932XDkOnxpIy4T4f/jgPhTTuuFt9XOkAwR0APE9Vy3iuE5Pv+y4pGmtBqmPqs0XcFb2PEdQDvlzpAMEdAPzAi52Y/N136XCo9dYg91+B++GEROOOu5wnGmvRACC4A4AbqeVW7FfLqLvdZ7jBTvsuRaNRj9bJaNR4yP4ahuHLUplgn8YwEtwBgjsA+CcPFQoFR52Y7K/DeBKc9l2anJz0YpBVT1XqFb34slRGowRI3XHnGgcI7gBORK9jBXpd+YHLUJymfD5vvxOTONtOTI76LqlpiSevhV5P41axvEsOpS+rZfTuuLOOO0BwB1z3A61nmYG2H5Yr7rWbAXesNjhUHHViCofDZ9iJyWnfpUyfR4+LxqoyPv+J7nxhGQAEd8BtuT0YaO336mU/7Ey9EgiFOaanzEOdmIah79LhxusVZ/u1xl1vtRy1IiTXOEBwB9xzmhvd8lavtOb1/eg1a93d1UDY4JCePqedmM5qUUiZMPi+79Ihnqp8IoJrT4EYPYDgDrjnNA/3KludtXueD+67j7qP7gaNCIf09DntxFSr1arV6mmfIb2eBHff91063H7th1PJ7k+MJEMHENwBF/00k1+dhf8X6LQ9vR+d5Q+6O9xxPxtOOzF1u9319fVT3sgh6bt0zLjvyzqZgH8bSwEguGP4ons0Yb33ve7uI08nDusP/3PwIHPws/lsFItF+5lYgvvpd2La3Nz0fd8lDBw17gDBHXDbmR4O7Jfav/9vvLsHnQfvWDd/L2DEOJhnJZ1Ou7kTk3oi1vd9l57YZU5LAAR3wI+MaPsPfqu7vuDJje92zN/5F4F2M8BH4WfH5Z2YhqTv0gB+7IX8+YOPUhmA4A746WQP93Yftf7jP/XiOujtP/j31nv/IxDmsdQz5rQT02lWyzjquyQ82ndpALNg1qIBQHAHPCASt/7od8z/9m1vbXXn/tut3/7lQLfDCu5nzmknplKpdDqdmJz2Xcpms97tu3R0hDknj54DDAJAcAf8dL6HAuGI+V9+pf2//p1XNrm7vtD8jV88WIQ+EucAuiEpOu3EJNn9FDZsePouHZO/i0n0FnY0DBaqAgjugEtP+XDPbDZ/8x+a//PX3L+xnXtvNr79c92H7wciCQ6dSzjtxLSxsXEKW+Wo71IkEvF036XjXlbcmQZAcAc8w4gErFbr3/6j5ne+1XPtApGW2f6932x8+290V28FYkmJWxw3l3DaialSqZx0JyanfZdSqZTX15MBgCGNMAwBhlH/Kc/29369s/BH0S/+dOSHvxaIp9yzdZ2bv2/+7r+23v7uQVF7lHvtLjt3+tUy9gtgut3u5ubmiRaUD2ffJZkURSKRZrOpUf3S6XSoj/9+DqBUBiC4Ax4QS3aXbza/8y3ze79uvPKnjNe+EipeChqRM1i8pdcNtFvdyrZE9vZb/7Vz/51edTsYSwaCfCbmRoVC4cGDB/aD+/b29sWLF0+uulr1XbIZ3H3Td0k7efu135CcAxoL5vR6PRaRBAjugEdEExKauysfmI9um//9V4Ojk+GpK8GxqWA8dUrxvdfttRq92k53baG7uRgwW4FuOxAygvE0B8e1stlsKpWq1Wp2Eo/qxLS3t3dC1SlO+y7FYjHf1MkYhuH0cUz1xLAvT8ue7kK3fPgAENwB7wiGHi/Y0uvtrlnbK4Fup9f/r1P6/hL+5FfIOCiMCfd/weWnTDBYLBZv375tp8bgsBPTCcXloe27JHuh10pJBsGvpTJOs7u8PtzHRQ0Q3AHv5bGD6NxfK51PjvFsuVxO3e61WWYgwX12dvYkEpLqu2S/TNlPfZdkPDXuuFuW5cub7rJTGnUvfu0jC/gVVywAOJZOp0dGRux3Ytrb2zuJTkzD2XfpMHHqPVWpAq4vT0uN4K79wQUAgjsAeIOjpdAlS7Xb7ZPoxFSv18vl8nD2XVKrymi8S5XK+DK1a7yL4A4Q3AHA//L5vP1OTBKPTqIT087OjmmaQ9t3SePhVCGTKI3VV9xP45MEdVawHCRAcAcAn8tms8lk8gw7Mcm3lsnAMPdd0rvjblmWL4O7HGKn+yVvkdTOw6kAwR0AfE51YrJfUqw6MQ1wA4az79JReqFT0qpfH07VWJFdzh+CO0BwBwD/KxaL9nOz6sQ0wMciZRpg/w6rb/ouHRWJRDQWlhHNZtN/Z6Ne9yVq3AGCOwAMBdWJyX61jOrENJBvLd9UpgE2s5q8OB6P+6xORkSjUcnuGitCtlotgnvgcUMuOqcCBHcA8D/Viclm3cVhJ6aBfGuZADQaDft9lyYmJvxXESGhU+NusRw1v95x14jgPJkKENwBYFgcdmKy+XoJ7gMpsJavU6/XbQY1eZmf+i4dDe56pTIydD5byl1Oqna77TgBhEIyhlzFAMEdAIZCNpt12olJUuPxU1q5XLb54m63m+nz3+DLeGo8bqvuuPtvYZlWq+XojrsqcNdYmQcAwR0AvJodc7mc/TL3drt9/GoZif7yRYaz79ITNEq0VY27zxaWkd2xLEujbSp33AGCOwAMkXw+H4/H7XdiWl9fP+Z3lNQ+zH2XjkqlUhqF3XKw9vf3fRbcZU6occed4A4Q3AFgiGh0YjpOtYx8I4n+w9x36fjBPdD/1MJP4yAHWmOpHII7QHAHgOGi0YlpbW1N+9vRd+mJ4K6xsIzEXBlGP42DpHanpTKqbSo17gDBHQCGi0YnJu3vRd+lo5LJpKNVfQ4PgUx+fBbcnb5FUj6LuAMEdwAYOk47MTUaDfvLwhzltO9SNBr1cZ1MoP9xh4y8xhtN0/TT86l6Jfu+XGsIILgDAD4lixeLRZt5OhQK1ev1Uqmk8Y0qlYqjvkuTk5P+67v08VmT07UdZQDb7bafqmUkuDu9dy6DkEwmuXgBgjsADJ1cLidJ6KQ7MW1vb9N36QkjIyMa7zJN00/BXaZzGkUv6XSaKxcguAPA0JEMNDo6an9RSNX61NG3oO/SU6VSKcMwHL1FLajvm4Vl5MSQ4O74x38oRHAHCO4AMIzUcun2y9xN03TaiYm+S08Vi8X0qmWq1ao/ytxrtZplWY7eIicqBe4AwR0AhpcKyjazu0YnJvouPZWMeTqddhrB1YL6GouxuDO4y7zFUamMvF5mO75//gEguAMAnm50dDSVStm89eu0ExN9l55BgrvGo5mNRsMf1TJyIjmdt6hKKq5ZgOAOAEMqHA5LdnfUiWlzc9Pmi+m79AyOmtcepbe2j6uoZlJO990wDL1lNAEQ3AHAJ5x2Ytra2rL5YvouPTu4JxIJjTJ3GVWNuO8qjUaj2Ww6ah8rA5VOp+PxOBcsQHAHgOGlqmXsP6K6v79vZ6EY+i49Wzgc1lggRY2/1xeFrFar9lcIPQzuMs8Zng9kAII7AODpWbBQKAy8ExN9lz5VPp/X2GVH1UruJOeGZVlOS/wzmQxPpgIEdwAYdpIgB96Jib5Ldobd/pI+h9RHGd6tlpEzx/4KoYe7HIlEeDIVILgDABx3YiqVSs9e24S+SzZH0v46+kcnObVabW9vz6N7LWdOpVJxdLtdhigWi+m1mwVAcAcAX3HaianVaj07l9N3yabJyUmnwT0UCsn4b29ve3SXd3Z2nNbJyBDJ3DKRSHCpAgR3AEBgbGzMUSemtbW1Z7yAvkv2h93+OvpH505qhL24yxsbG47Wk1H7Oz4+zkUKENwBAB8lSPurE0qQ2tvb+6RqGfou2SeTpYmJCaetiGTiJMHdiwu6l8vlarXq9F2yvzJKXKQAwR0A8FE2yuVyA+nERN8lRySSajyiKkdqdXXVczv76NEjp3UycqbJGUKdDEBwBwB836A6MdF3yZGxsbFsNqvRiWlnZ8f+E8BuYJrm7u6u03fJyBQKBadrRwIguAOAn2l0Yvp42QN9l5wKh8MyddEIpp1OZ2lpyUN7KjM6vfVkhvYRCIDgDgD4xCxeLBbtd2JqNBofv4FK3yUNU1NT8Xhc441bW1teqXSXaYaq7XEU3C3LmpiYSCaTXJ4AwR0A8ANUmbvNm+7ysp2dnScerHTUd0kMYd+lj4tGo9PT004fUVXrQi4vL3uiGdP6+rpG3yXDMOQMYWoHENwBAE9Kp9NjY2PanZic9l3KZrO0w1QkuGs8oqrW5ZTpk8v3rt1u379/3+kqkGr5dtaTAQjuAICnOGYnJvouaUskElNTU05vuqtPNm7fvu30jadscXGxVqtp1PEXi0VutwMEdwDA0znqxBQKhY52YqLvkjYZNAnusVhMoxlTpVK5f/++a3etVCotLS05Te3qDJmZmeHcAAjuAIBPDO6JRML+TfdyudxoNNR/0nfpOEZGRorFokbBuoz54uLi9va2C3eq3W7fuXNHfndaJ9PpdGZnZ/lABiC4AwA+kerEZPPFEtwlYG1sbAT6dTKO+i5lMhli2RPm5uY0xkSOgmVZt2/fPpxBucfCwoLTZ1ID/ecfksnkuXPnOCUAgjsA4Fn0OjGtra056rs0NTXFUD9B0uqFCxc0CtYlGcus6cMPP3RVsfvi4uLS0pJGkXqv15uZmWEVSIDgDgD4FNls1mknpnq9Xi6X6bt0fM8991w6nXZa6a6y+8bGxq1bt1yS3VdXV+/evavxQKpabojqdoDgDgCwFQELhYL9TkztdvvmzZv262Tou/QMMqWZm5uzv5r+E8dieXn5zp07Z76y+/r6ukwh5EBrBHdBdTtAcAcA2JXP5yUFOurE1Gq17Kc0Fud+hnPnzsn4aNw4D/YtLS1JaD7D7L6ysvL+++/LdE4jtVuWNTU1NT09zWkAENwBALak0+nR0VFHNes2U5oqhBAM8icJh8Pz8/PJZFIjfKvsvri4eOPGDdM0T3nLZbJx9+7dmzdvSv52uoxM4PEzqZcvX+YcAAjuAAC7IpGIBPeTuGtL3yU7MpmMZHe990pwl+i/urr65ptvlkqlU9vmarX67rvvLiwsyAZopHY52eSNktp5JhUguAMAnBkfH7fficl+OKPvkk1TU1Pnz5+3LEvv7ZLd9/b23nrrrXv37p3046ry9RcXF2WesLGxof3ognwR2V+KZAD/MRgCADhpqhNTpVIZ4FOkEtzT6TTrydgRDAbn5+drtZrGOuiH2V31P9re3r506ZLMxPQeFX122pYvLqld3do/TmqfmJi4evXqwLcQAMEdAPxPdWKqVquD/bL0XbJPBurFF1988803m82mRvFJoP/sgfwuqVq+yLlz5wqFwuTk5EDCcaPR2NnZWVtbk98Pv5F2apcz7ZVXXmGhIYDg7g7yryR3EQDvXbbDXphXLBaXl5cH+AUl3klw5ORyNM+5du3aO++80263tcOxeuPKysrGxsbS0lI+n5cEn06nnSb4Xq8nm7G7u7u5uVkul/f39+VvjpO25e3dble2R1I70zmA4O6aABA2AiH5p63HwQO8dOXGhv0huWw2m0gk6vX6QO7RSkqLxWKS0ji1HBkfH3/ppZdu3LjR6XSOc2PbMAxJyRK79/b2Hjx4IEd2dHQ03SehWfK3eqpVvViVxaukbllWo9GoVquVSqVWq8n/JV9H/q9Qn/b2qDWLLly4cPXqVb3uqt0++YNskvpdfU3Z5kC/1otb+ADBXUs4epAAegR3wDtCRnCkMORjILmnWCwuLCwMJADRd0mbHAVJpR988IF2S6OP5qKPo7l8HYngksV7fZHHVL5XT8SqHNxqteQPwcfUFzlOXj+M3clk8tKlS088jaq+qWyAmjPIn+Vv5D/V7yqdm6b5xN/Lf8qLO0fInPP111+XyQknD0Bw1/rHkuAOeEivF0xlQ2NFRiKfz9+/f18t1Xf8r0bfJW0q4H744Yd6S6Q/9efS4TFVAb3ZbAYeL8t49DUS5U9ij2SeIPty+/Ztlb9lA9T98qPTBnUrXd1WV/fXDzfsqb+r2ebRjw4AENx1hM7NB6Pxg+xOsTvgft1O+OL1QDjCSKhOTKVS6ZjBnb5LA8nukkdv3rxpmuZgg+kT2fcUyPeqVquHHV6fWHX06JYcTeTEccCTGdiLGx1+8U8GU6OSBjh+gPv1rLbxyp9mHAKPOzEdfyFw+i4NRLFYvH79usymTnpp9lOL76pQPvyDQkccrdIBQHA/reD+3MuhmRcDXYvjB7idZYaKc8b8G4yEIsH9mJ2Y6Ls0QGNjY6+99lo+n1c13wwIAIL7idxYiH7pZ2j7Crhfr92KvPG1YG6KoVAkcCeTyWMG91QqRd+lQZHDcf369fn5+VAo5I9b7wAI7q5jXPui8coXe819DiHg3tRuNsPTz0c+/1MMxSFVLXPML0LfpcEKh8MS3F999dVsNque4GRMABDcB5vcI9Gv/vzBOhXtJkcRcKNuRwJR9M/+nVB+hsE4qlgsHmclE/ounZB8Pv/6669fvnxZRlgtvcKYACC4D0x49pXY1//+QTOmDsXugMv0uoF2K/aFb0Q+95MMxhNGR0fj8bheLpR3RaNR+i6dEBnb+fn5N954o1AoSHyn8B0AwX2QIn/iL8f+wi8edFF9vB4tAHek9qbxIz8R/fq3GIyPC4fDk5OTXa1/tei7dApGRkauX7/+6quvnj9/PhgMqqXQAYDgPgDRr/yt2E/+g6ARCZgNujIBZ6/dDHSsyI/+tfhf/ScHvdLwNIVCQXtJPvounY58Pn/t2rXXX3/9ueeek5mS6jPa5SYRgDNl+GAfoj/2c6Fz863f+sedpfeCYSMQiXNcgTPQaffMZmjiQvTL34x+6a8zHs+QSqUymUy1WnVU7E7fpVMmk6uxvosXL270NfrkQKiWoiyIDoDgrrUb174Qnn25/bvfaf/f3+4sf3BwA96Iyr+6HGDgNHStg8g+Ohn5/F+JfvEboemrDMmn3G6IRnO53N7enqPgTt+ls5JIJGb7yuVyqVSqVCoy6arVapZlBY9goAAQ3O0KZsajf/7vGX/8653b/8d657ude2/2GtV+du8FqKABBn/JffQ/mSSHn/sh4+UvGS99nshun0Tw1dVVR6UXKu4zdGdopE/+0Gg0ms1mvV6X+L6/v6/uxB8+ycojrQBO6mevP/996XZ6ZqNXK/X29wJms8eyM8DA/+0IG4FwJJjKBtO5YDwlfz7DjTFNU8KTzReHQqF0On3mz3d2Oh3JfI6Cu3u2vFKp2H99KpXy96cE8mNUHUcZGcuy2u324WH1x7KScspls1keiQYI7gAAAABsCTEEAAAAAMEdAAAAAMEdAAAAILgDAAAAILgDAAAAILgDAAAABHcAAAAABHcAAAAABHcAAACA4A4AAACA4A4AAAAQ3AEAAAAQ3AEAAAAQ3AEAAACCOwAAAACCOwAAAACCOwAAAEBwBwAAAEBwBwAAAEBwBwAAAAjuAAAAAAjuAAAAAMEdAAAAAMEdAAAAAMEdAAAAILgDAAAAILgDAAAAILgDAAAABHcAAAAABHcAAACA4A4AAACA4A4AAACA4A4AAAAQ3AEAAAAQ3AEAAAAQ3AEAAACCOwAAAACCOwAAAACCOwAAAEBwBwAAAEBwBwAAAAjuAAAAAAjuAAAAAAjuAAAAAMEdAAAAAMEdAAAAAMEdAAAAILgDAAAAILgDAAAABHcAAAAABHcAAAAABHcAAACA4A4AAACA4A4AAACA4A4AAAAQ3AEAAAAQ3AEAAAAQ3AEAAACCOwAAAACCOwAAAEBwBwAAAEBwBwAAAEBwBwAAAAjuAAAAAAjuAAAAAAjuAAAAAMEdAAAAAMEdAAAAILgDAAAAILgDAAAAILgDAAAABHcAAAAABHcAAAAABHcAAACA4A4AAACA4A4AAACA4A4AAAAQ3AEAAAAQ3AEAAACCOwAAAACCOwAAAACCOwAAAEBwBwAAAEBwBwAAAEBwBwAAAAjuAAAAAAjuAAAAAMEdAAAAAMEdAAAAAMEdAAAAILgDAAAAILgDAAAAILgDAAAABHcAAAAABHcAAAAABHcAAACA4A4AAACA4A4AAAAQ3AEAAAAQ3AEAAAAQ3AEAAACCOwAAAACCOwAAAACCOwAAAEBwBwAAAEBwBwAAAAjuAAAAAAjuAAAAAAjuAAAAAMEdAAAAAMEdAAAAwKf5/wrtAZFRjpJnAAAAAElFTkSuQmCC;" parent="1" vertex="1">
          <mxGeometry x="182.74" y="1950" width="461.81" height="260" as="geometry" />
        </mxCell>
        <mxCell id="2ubSMsJZ-q5m1QUkIUyU-152" value="" style="sketch=0;pointerEvents=1;shadow=0;dashed=0;html=1;strokeColor=none;labelPosition=center;verticalLabelPosition=bottom;verticalAlign=top;align=center;fillColor=#505050;shape=mxgraph.mscae.intune.intune_email_profiles" parent="1" vertex="1">
          <mxGeometry x="445.29" y="1600" width="120" height="120" as="geometry" />
        </mxCell>
        <mxCell id="GgL0T41yPBXKPabCRAPt-2" value="&lt;font style=&quot;font-size: 72px;&quot;&gt;&lt;b&gt;ERP System&lt;/b&gt;&lt;/font&gt;" style="text;html=1;align=center;verticalAlign=middle;whiteSpace=wrap;rounded=0;" vertex="1" parent="1">
          <mxGeometry x="170" y="-420" width="568.54" height="30" as="geometry" />
        </mxCell>
      </root>
    </mxGraphModel>
  </diagram>
</mxfile>
